<?xml version="1.0" encoding="us-ascii" standalone="no"?><svg xmlns="http://www.w3.org/2000/svg" xmlns:xlink="http://www.w3.org/1999/xlink" contentStyleType="text/css" height="517px" preserveAspectRatio="none" style="width:1078px;height:517px;background:#FFFFFF;" version="1.1" viewBox="0 0 1078 517" width="1078px" zoomAndPan="magnify"><defs/><g><!--class WiFiManager--><g id="elem_WiFiManager"><rect codeLine="2" fill="#F1F1F1" height="48" id="WiFiManager" rx="2.5" ry="2.5" style="stroke:#181818;stroke-width:0.5;" width="120" x="7" y="210"/><ellipse cx="22" cy="226" fill="#ADD1B2" rx="11" ry="11" style="stroke:#181818;stroke-width:1.0;"/><path d="M24.9731,231.6431 Q24.3921,231.9419 23.7529,232.0913 Q23.1138,232.2407 22.4082,232.2407 Q19.9014,232.2407 18.5815,230.5889 Q17.2617,228.937 17.2617,225.8159 Q17.2617,222.6865 18.5815,221.0347 Q19.9014,219.3828 22.4082,219.3828 Q23.1138,219.3828 23.7612,219.5322 Q24.4087,219.6816 24.9731,219.9805 L24.9731,222.7031 Q24.3423,222.1221 23.7488,221.8523 Q23.1553,221.5825 22.5244,221.5825 Q21.1797,221.5825 20.4949,222.6492 Q19.8101,223.7158 19.8101,225.8159 Q19.8101,227.9077 20.4949,228.9744 Q21.1797,230.041 22.5244,230.041 Q23.1553,230.041 23.7488,229.7712 Q24.3423,229.5015 24.9731,228.9204 Z " fill="#000000"/><text fill="#000000" font-family="sans-serif" font-size="14" lengthAdjust="spacing" textLength="88" x="36" y="231.291">WiFiManager</text><line style="stroke:#181818;stroke-width:0.5;" x1="8" x2="126" y1="242" y2="242"/><line style="stroke:#181818;stroke-width:0.5;" x1="8" x2="126" y1="250" y2="250"/></g><!--class PubSubClientManager--><g id="elem_PubSubClientManager"><rect codeLine="5" fill="#F1F1F1" height="48" id="PubSubClientManager" rx="2.5" ry="2.5" style="stroke:#181818;stroke-width:0.5;" width="184" x="154" y="304.48"/><ellipse cx="169" cy="320.48" fill="#ADD1B2" rx="11" ry="11" style="stroke:#181818;stroke-width:1.0;"/><path d="M171.9731,326.1231 Q171.3921,326.4219 170.7529,326.5713 Q170.1138,326.7207 169.4082,326.7207 Q166.9014,326.7207 165.5815,325.0689 Q164.2617,323.417 164.2617,320.2959 Q164.2617,317.1665 165.5815,315.5147 Q166.9014,313.8628 169.4082,313.8628 Q170.1138,313.8628 170.7612,314.0122 Q171.4087,314.1616 171.9731,314.4605 L171.9731,317.1831 Q171.3423,316.6021 170.7488,316.3323 Q170.1553,316.0625 169.5244,316.0625 Q168.1797,316.0625 167.4949,317.1292 Q166.8101,318.1958 166.8101,320.2959 Q166.8101,322.3877 167.4949,323.4544 Q168.1797,324.521 169.5244,324.521 Q170.1553,324.521 170.7488,324.2512 Q171.3423,323.9815 171.9731,323.4004 Z " fill="#000000"/><text fill="#000000" font-family="sans-serif" font-size="14" lengthAdjust="spacing" textLength="152" x="183" y="325.771">PubSubClientManager</text><line style="stroke:#181818;stroke-width:0.5;" x1="155" x2="337" y1="336.48" y2="336.48"/><line style="stroke:#181818;stroke-width:0.5;" x1="155" x2="337" y1="344.48" y2="344.48"/></g><!--class SensorManager--><g id="elem_SensorManager"><rect codeLine="8" fill="#F1F1F1" height="48" id="SensorManager" rx="2.5" ry="2.5" style="stroke:#181818;stroke-width:0.5;" width="139" x="477.5" y="132"/><ellipse cx="492.5" cy="148" fill="#ADD1B2" rx="11" ry="11" style="stroke:#181818;stroke-width:1.0;"/><path d="M495.4731,153.6431 Q494.8921,153.9419 494.2529,154.0913 Q493.6138,154.2407 492.9082,154.2407 Q490.4014,154.2407 489.0815,152.5889 Q487.7617,150.937 487.7617,147.8159 Q487.7617,144.6865 489.0815,143.0347 Q490.4014,141.3828 492.9082,141.3828 Q493.6138,141.3828 494.2612,141.5322 Q494.9087,141.6816 495.4731,141.9805 L495.4731,144.7031 Q494.8423,144.1221 494.2488,143.8523 Q493.6553,143.5825 493.0244,143.5825 Q491.6797,143.5825 490.9949,144.6492 Q490.3101,145.7158 490.3101,147.8159 Q490.3101,149.9077 490.9949,150.9744 Q491.6797,152.041 493.0244,152.041 Q493.6553,152.041 494.2488,151.7712 Q494.8423,151.5015 495.4731,150.9204 Z " fill="#000000"/><text fill="#000000" font-family="sans-serif" font-size="14" lengthAdjust="spacing" textLength="107" x="506.5" y="153.291">SensorManager</text><line style="stroke:#181818;stroke-width:0.5;" x1="478.5" x2="615.5" y1="164" y2="164"/><line style="stroke:#181818;stroke-width:0.5;" x1="478.5" x2="615.5" y1="172" y2="172"/></g><!--class MQTTMessageHandler--><g id="elem_MQTTMessageHandler"><rect codeLine="11" fill="#F1F1F1" height="48" id="MQTTMessageHandler" rx="2.5" ry="2.5" style="stroke:#181818;stroke-width:0.5;" width="186" x="246" y="132"/><ellipse cx="261" cy="148" fill="#ADD1B2" rx="11" ry="11" style="stroke:#181818;stroke-width:1.0;"/><path d="M263.9731,153.6431 Q263.3921,153.9419 262.7529,154.0913 Q262.1138,154.2407 261.4082,154.2407 Q258.9014,154.2407 257.5815,152.5889 Q256.2617,150.937 256.2617,147.8159 Q256.2617,144.6865 257.5815,143.0347 Q258.9014,141.3828 261.4082,141.3828 Q262.1138,141.3828 262.7612,141.5322 Q263.4087,141.6816 263.9731,141.9805 L263.9731,144.7031 Q263.3423,144.1221 262.7488,143.8523 Q262.1553,143.5825 261.5244,143.5825 Q260.1797,143.5825 259.4949,144.6492 Q258.8101,145.7158 258.8101,147.8159 Q258.8101,149.9077 259.4949,150.9744 Q260.1797,152.041 261.5244,152.041 Q262.1553,152.041 262.7488,151.7712 Q263.3423,151.5015 263.9731,150.9204 Z " fill="#000000"/><text fill="#000000" font-family="sans-serif" font-size="14" lengthAdjust="spacing" textLength="154" x="275" y="153.291">MQTTMessageHandler</text><line style="stroke:#181818;stroke-width:0.5;" x1="247" x2="431" y1="164" y2="164"/><line style="stroke:#181818;stroke-width:0.5;" x1="247" x2="431" y1="172" y2="172"/></g><!--class MainApplication--><g id="elem_MainApplication"><rect codeLine="14" fill="#F1F1F1" height="48" id="MainApplication" rx="2.5" ry="2.5" style="stroke:#181818;stroke-width:0.5;" width="143" x="136.5" y="7"/><ellipse cx="151.5" cy="23" fill="#ADD1B2" rx="11" ry="11" style="stroke:#181818;stroke-width:1.0;"/><path d="M154.4731,28.6431 Q153.8921,28.9419 153.2529,29.0913 Q152.6138,29.2407 151.9082,29.2407 Q149.4014,29.2407 148.0815,27.5889 Q146.7617,25.937 146.7617,22.8159 Q146.7617,19.6865 148.0815,18.0347 Q149.4014,16.3828 151.9082,16.3828 Q152.6138,16.3828 153.2612,16.5322 Q153.9087,16.6816 154.4731,16.9805 L154.4731,19.7031 Q153.8423,19.1221 153.2488,18.8523 Q152.6553,18.5825 152.0244,18.5825 Q150.6797,18.5825 149.9949,19.6492 Q149.3101,20.7158 149.3101,22.8159 Q149.3101,24.9077 149.9949,25.9744 Q150.6797,27.041 152.0244,27.041 Q152.6553,27.041 153.2488,26.7712 Q153.8423,26.5015 154.4731,25.9204 Z " fill="#000000"/><text fill="#000000" font-family="sans-serif" font-size="14" lengthAdjust="spacing" textLength="111" x="165.5" y="28.291">MainApplication</text><line style="stroke:#181818;stroke-width:0.5;" x1="137.5" x2="278.5" y1="39" y2="39"/><line style="stroke:#181818;stroke-width:0.5;" x1="137.5" x2="278.5" y1="47" y2="47"/></g><!--class WiFiClient--><g id="elem_WiFiClient"><rect codeLine="17" fill="#F1F1F1" height="64.4883" id="WiFiClient" rx="2.5" ry="2.5" style="stroke:#181818;stroke-width:0.5;" width="120" x="107" y="445.97"/><ellipse cx="131" cy="461.97" fill="#ADD1B2" rx="11" ry="11" style="stroke:#181818;stroke-width:1.0;"/><path d="M133.9731,467.6131 Q133.3921,467.9119 132.7529,468.0613 Q132.1138,468.2107 131.4082,468.2107 Q128.9014,468.2107 127.5815,466.5589 Q126.2617,464.907 126.2617,461.7859 Q126.2617,458.6565 127.5815,457.0047 Q128.9014,455.3528 131.4082,455.3528 Q132.1138,455.3528 132.7612,455.5022 Q133.4087,455.6516 133.9731,455.9505 L133.9731,458.6731 Q133.3423,458.0921 132.7488,457.8223 Q132.1553,457.5525 131.5244,457.5525 Q130.1797,457.5525 129.4949,458.6192 Q128.8101,459.6858 128.8101,461.7859 Q128.8101,463.8777 129.4949,464.9444 Q130.1797,466.011 131.5244,466.011 Q132.1553,466.011 132.7488,465.7412 Q133.3423,465.4715 133.9731,464.8904 Z " fill="#000000"/><text fill="#000000" font-family="sans-serif" font-size="14" lengthAdjust="spacing" textLength="68" x="147" y="467.261">WiFiClient</text><line style="stroke:#181818;stroke-width:0.5;" x1="108" x2="226" y1="477.97" y2="477.97"/><text fill="#000000" font-family="sans-serif" font-size="14" lengthAdjust="spacing" textLength="108" x="113" y="495.5052">ConnectedState</text><line style="stroke:#181818;stroke-width:0.5;" x1="108" x2="226" y1="502.4583" y2="502.4583"/></g><!--class PubSubClient--><g id="elem_PubSubClient"><rect codeLine="21" fill="#F1F1F1" height="64.4883" id="PubSubClient" rx="2.5" ry="2.5" style="stroke:#181818;stroke-width:0.5;" width="124" x="275" y="445.97"/><ellipse cx="290" cy="461.97" fill="#ADD1B2" rx="11" ry="11" style="stroke:#181818;stroke-width:1.0;"/><path d="M292.9731,467.6131 Q292.3921,467.9119 291.7529,468.0613 Q291.1138,468.2107 290.4082,468.2107 Q287.9014,468.2107 286.5815,466.5589 Q285.2617,464.907 285.2617,461.7859 Q285.2617,458.6565 286.5815,457.0047 Q287.9014,455.3528 290.4082,455.3528 Q291.1138,455.3528 291.7612,455.5022 Q292.4087,455.6516 292.9731,455.9505 L292.9731,458.6731 Q292.3423,458.0921 291.7488,457.8223 Q291.1553,457.5525 290.5244,457.5525 Q289.1797,457.5525 288.4949,458.6192 Q287.8101,459.6858 287.8101,461.7859 Q287.8101,463.8777 288.4949,464.9444 Q289.1797,466.011 290.5244,466.011 Q291.1553,466.011 291.7488,465.7412 Q292.3423,465.4715 292.9731,464.8904 Z " fill="#000000"/><text fill="#000000" font-family="sans-serif" font-size="14" lengthAdjust="spacing" textLength="92" x="304" y="467.261">PubSubClient</text><line style="stroke:#181818;stroke-width:0.5;" x1="276" x2="398" y1="477.97" y2="477.97"/><text fill="#000000" font-family="sans-serif" font-size="14" lengthAdjust="spacing" textLength="108" x="281" y="495.5052">ConnectedState</text><line style="stroke:#181818;stroke-width:0.5;" x1="276" x2="398" y1="502.4583" y2="502.4583"/></g><!--class DHTSensor--><g id="elem_DHTSensor"><rect codeLine="25" fill="#F1F1F1" height="80.9766" id="DHTSensor" rx="2.5" ry="2.5" style="stroke:#181818;stroke-width:0.5;" width="108" x="719" y="288"/><ellipse cx="734" cy="304" fill="#ADD1B2" rx="11" ry="11" style="stroke:#181818;stroke-width:1.0;"/><path d="M736.9731,309.6431 Q736.3921,309.9419 735.7529,310.0913 Q735.1138,310.2407 734.4082,310.2407 Q731.9014,310.2407 730.5815,308.5889 Q729.2617,306.937 729.2617,303.8159 Q729.2617,300.6865 730.5815,299.0347 Q731.9014,297.3828 734.4082,297.3828 Q735.1138,297.3828 735.7612,297.5322 Q736.4087,297.6816 736.9731,297.9805 L736.9731,300.7031 Q736.3423,300.1221 735.7488,299.8523 Q735.1553,299.5825 734.5244,299.5825 Q733.1797,299.5825 732.4949,300.6492 Q731.8101,301.7158 731.8101,303.8159 Q731.8101,305.9077 732.4949,306.9744 Q733.1797,308.041 734.5244,308.041 Q735.1553,308.041 735.7488,307.7712 Q736.3423,307.5015 736.9731,306.9204 Z " fill="#000000"/><text fill="#000000" font-family="sans-serif" font-size="14" lengthAdjust="spacing" textLength="76" x="748" y="309.291">DHTSensor</text><line style="stroke:#181818;stroke-width:0.5;" x1="720" x2="826" y1="320" y2="320"/><text fill="#000000" font-family="sans-serif" font-size="14" lengthAdjust="spacing" textLength="89" x="725" y="337.5352">Temperature</text><text fill="#000000" font-family="sans-serif" font-size="14" lengthAdjust="spacing" textLength="61" x="725" y="354.0234">Humidity</text><line style="stroke:#181818;stroke-width:0.5;" x1="720" x2="826" y1="360.9766" y2="360.9766"/></g><!--class DallasTemperatureSensor--><g id="elem_DallasTemperatureSensor"><rect codeLine="30" fill="#F1F1F1" height="64.4883" id="DallasTemperatureSensor" rx="2.5" ry="2.5" style="stroke:#181818;stroke-width:0.5;" width="209" x="862.5" y="296.24"/><ellipse cx="877.5" cy="312.24" fill="#ADD1B2" rx="11" ry="11" style="stroke:#181818;stroke-width:1.0;"/><path d="M880.4731,317.8831 Q879.8921,318.1819 879.2529,318.3313 Q878.6138,318.4807 877.9082,318.4807 Q875.4014,318.4807 874.0815,316.8289 Q872.7617,315.177 872.7617,312.0559 Q872.7617,308.9265 874.0815,307.2747 Q875.4014,305.6228 877.9082,305.6228 Q878.6138,305.6228 879.2612,305.7722 Q879.9087,305.9216 880.4731,306.2205 L880.4731,308.9431 Q879.8423,308.3621 879.2488,308.0923 Q878.6553,307.8225 878.0244,307.8225 Q876.6797,307.8225 875.9949,308.8892 Q875.3101,309.9558 875.3101,312.0559 Q875.3101,314.1477 875.9949,315.2144 Q876.6797,316.281 878.0244,316.281 Q878.6553,316.281 879.2488,316.0112 Q879.8423,315.7415 880.4731,315.1604 Z " fill="#000000"/><text fill="#000000" font-family="sans-serif" font-size="14" lengthAdjust="spacing" textLength="177" x="891.5" y="317.531">DallasTemperatureSensor</text><line style="stroke:#181818;stroke-width:0.5;" x1="863.5" x2="1070.5" y1="328.24" y2="328.24"/><text fill="#000000" font-family="sans-serif" font-size="14" lengthAdjust="spacing" textLength="89" x="868.5" y="345.7752">Temperature</text><line style="stroke:#181818;stroke-width:0.5;" x1="863.5" x2="1070.5" y1="352.7283" y2="352.7283"/></g><!--class SoilSensor--><g id="elem_SoilSensor"><rect codeLine="34" fill="#F1F1F1" height="64.4883" id="SoilSensor" rx="2.5" ry="2.5" style="stroke:#181818;stroke-width:0.5;" width="104" x="373" y="296.24"/><ellipse cx="388" cy="312.24" fill="#ADD1B2" rx="11" ry="11" style="stroke:#181818;stroke-width:1.0;"/><path d="M390.9731,317.8831 Q390.3921,318.1819 389.7529,318.3313 Q389.1138,318.4807 388.4082,318.4807 Q385.9014,318.4807 384.5815,316.8289 Q383.2617,315.177 383.2617,312.0559 Q383.2617,308.9265 384.5815,307.2747 Q385.9014,305.6228 388.4082,305.6228 Q389.1138,305.6228 389.7612,305.7722 Q390.4087,305.9216 390.9731,306.2205 L390.9731,308.9431 Q390.3423,308.3621 389.7488,308.0923 Q389.1553,307.8225 388.5244,307.8225 Q387.1797,307.8225 386.4949,308.8892 Q385.8101,309.9558 385.8101,312.0559 Q385.8101,314.1477 386.4949,315.2144 Q387.1797,316.281 388.5244,316.281 Q389.1553,316.281 389.7488,316.0112 Q390.3423,315.7415 390.9731,315.1604 Z " fill="#000000"/><text fill="#000000" font-family="sans-serif" font-size="14" lengthAdjust="spacing" textLength="72" x="402" y="317.531">SoilSensor</text><line style="stroke:#181818;stroke-width:0.5;" x1="374" x2="476" y1="328.24" y2="328.24"/><text fill="#000000" font-family="sans-serif" font-size="14" lengthAdjust="spacing" textLength="86" x="379" y="345.7752">SoilHumidity</text><line style="stroke:#181818;stroke-width:0.5;" x1="374" x2="476" y1="352.7283" y2="352.7283"/></g><!--link WiFiManager to WiFiClient--><g id="link_WiFiManager_WiFiClient"><path codeLine="38" d="M65.07,258.23 C63.67,285.73 64.14,332.41 79,368.97 C90.02,396.09 110.25,421.73 128.53,441.24 " fill="none" id="WiFiManager-to-WiFiClient" style="stroke:#181818;stroke-width:1.0;"/><polygon fill="#181818" points="131.65,444.56,128.357,435.278,128.2085,440.9329,122.5536,440.7844,131.65,444.56" style="stroke:#181818;stroke-width:1.0;"/><text fill="#000000" font-family="sans-serif" font-size="13" lengthAdjust="spacing" textLength="55" x="80" y="333.5484">Manages</text><text fill="#000000" font-family="sans-serif" font-size="13" lengthAdjust="spacing" textLength="8" x="55.6246" y="278.5704">1</text><text fill="#000000" font-family="sans-serif" font-size="13" lengthAdjust="spacing" textLength="22" x="101.7217" y="435.2536">1..*</text></g><!--link PubSubClientManager to WiFiClient--><g id="link_PubSubClientManager_WiFiClient"><path codeLine="39" d="M229.59,352.7 C220.59,365.93 209.56,383.01 201,398.97 C193.89,412.22 187.08,427.27 181.44,440.6 " fill="none" id="PubSubClientManager-to-WiFiClient" style="stroke:#181818;stroke-width:1.0;"/><polygon fill="#181818" points="179.25,444.81,186.4113,438.0486,181.1781,440.1967,179.03,434.9636,179.25,444.81" style="stroke:#181818;stroke-width:1.0;"/><text fill="#000000" font-family="sans-serif" font-size="13" lengthAdjust="spacing" textLength="55" x="202" y="412.5384">Manages</text><text fill="#000000" font-family="sans-serif" font-size="13" lengthAdjust="spacing" textLength="8" x="216.6151" y="373.038">1</text><text fill="#000000" font-family="sans-serif" font-size="13" lengthAdjust="spacing" textLength="22" x="157.5078" y="435.1802">1..*</text></g><!--link PubSubClientManager to PubSubClient--><g id="link_PubSubClientManager_PubSubClient"><path codeLine="40" d="M260.42,352.89 C274.95,376.48 297.58,413.23 314.48,440.66 " fill="none" id="PubSubClientManager-to-PubSubClient" style="stroke:#181818;stroke-width:1.0;"/><polygon fill="#181818" points="317.57,444.67,316.2452,434.9107,314.9431,440.4156,309.4382,439.1136,317.57,444.67" style="stroke:#181818;stroke-width:1.0;"/><text fill="#000000" font-family="sans-serif" font-size="13" lengthAdjust="spacing" textLength="55" x="297" y="412.5384">Manages</text><text fill="#000000" font-family="sans-serif" font-size="13" lengthAdjust="spacing" textLength="8" x="254.8296" y="372.8735">1</text><text fill="#000000" font-family="sans-serif" font-size="13" lengthAdjust="spacing" textLength="22" x="289.2938" y="435.0113">1..*</text></g><!--link SensorManager to DHTSensor--><g id="link_SensorManager_DHTSensor"><path codeLine="41" d="M577.95,180.34 C613.29,207 671.87,251.19 715.62,284.2 " fill="none" id="SensorManager-to-DHTSensor" style="stroke:#181818;stroke-width:1.0;"/><polygon fill="#181818" points="719.34,287.76,714.54,279.16,715.34,284.76,709.74,285.56,719.34,287.76" style="stroke:#181818;stroke-width:1.0;"/><text fill="#000000" font-family="sans-serif" font-size="13" lengthAdjust="spacing" textLength="55" x="681" y="239.0684">Manages</text><text fill="#000000" font-family="sans-serif" font-size="13" lengthAdjust="spacing" textLength="8" x="576.5191" y="200.7072">1</text><text fill="#000000" font-family="sans-serif" font-size="13" lengthAdjust="spacing" textLength="22" x="688.9899" y="278.2676">1..*</text></g><!--link SensorManager to DallasTemperatureSensor--><g id="link_SensorManager_DallasTemperatureSensor"><path codeLine="42" d="M616.95,171.66 C655.42,180.72 703.6,193.74 745,210 C803.43,232.94 866.34,267.23 910.22,292.85 " fill="none" id="SensorManager-to-DallasTemperatureSensor" style="stroke:#181818;stroke-width:1.0;"/><polygon fill="#181818" points="914.21,295.77,908.4679,287.7682,909.8963,293.2418,904.4227,294.6701,914.21,295.77" style="stroke:#181818;stroke-width:1.0;"/><text fill="#000000" font-family="sans-serif" font-size="13" lengthAdjust="spacing" textLength="55" x="845" y="239.0684">Manages</text><text fill="#000000" font-family="sans-serif" font-size="13" lengthAdjust="spacing" textLength="8" x="624.5761" y="170.0859">1</text><text fill="#000000" font-family="sans-serif" font-size="13" lengthAdjust="spacing" textLength="22" x="880.8482" y="285.4518">1..*</text></g><!--link SensorManager to SoilSensor--><g id="link_SensorManager_SoilSensor"><path codeLine="43" d="M498.19,180.45 C485.65,188.38 473.14,198.26 464,210 C445.91,233.23 436.01,265.25 430.72,289.99 " fill="none" id="SensorManager-to-SoilSensor" style="stroke:#181818;stroke-width:1.0;"/><polygon fill="#181818" points="429.53,294.8,435.2489,286.7816,430.5298,289.901,427.4104,285.1819,429.53,294.8" style="stroke:#181818;stroke-width:1.0;"/><text fill="#000000" font-family="sans-serif" font-size="13" lengthAdjust="spacing" textLength="55" x="465" y="239.0684">Manages</text><text fill="#000000" font-family="sans-serif" font-size="13" lengthAdjust="spacing" textLength="8" x="477.9777" y="200.4427">1</text><text fill="#000000" font-family="sans-serif" font-size="13" lengthAdjust="spacing" textLength="22" x="406.2562" y="285.4877">1..*</text></g><!--link SensorManager to PubSubClient--><g id="link_SensorManager_PubSubClient"><path codeLine="44" d="M546.6,180.3 C544.78,221.95 535.87,310.3 494,368.97 C471.18,400.95 435.79,426.54 404.38,444.79 " fill="none" id="SensorManager-to-PubSubClient" style="stroke:#181818;stroke-width:1.0;"/><polygon fill="#181818" points="400.38,447.65,410.178,446.6508,404.7195,445.1662,406.204,439.7077,400.38,447.65" style="stroke:#181818;stroke-width:1.0;"/><text fill="#000000" font-family="sans-serif" font-size="13" lengthAdjust="spacing" textLength="135" x="531" y="333.5484">Subscribes/Publishes</text><text fill="#000000" font-family="sans-serif" font-size="13" lengthAdjust="spacing" textLength="8" x="537.5275" y="200.6575">1</text><text fill="#000000" font-family="sans-serif" font-size="13" lengthAdjust="spacing" textLength="22" x="406.9473" y="441.309">1..*</text></g><!--link MQTTMessageHandler to PubSubClientManager--><g id="link_MQTTMessageHandler_PubSubClientManager"><path codeLine="45" d="M326.26,180.34 C309.41,211.25 279.7,265.7 261.54,298.99 " fill="none" id="MQTTMessageHandler-to-PubSubClientManager" style="stroke:#181818;stroke-width:1.0;"/><polygon fill="#181818" points="258.73,303.14,266.5444,297.1454,261.1192,298.7478,259.5169,293.3226,258.73,303.14" style="stroke:#181818;stroke-width:1.0;"/><text fill="#000000" font-family="sans-serif" font-size="13" lengthAdjust="spacing" textLength="51" x="309" y="239.0684">Handles</text><text fill="#000000" font-family="sans-serif" font-size="13" lengthAdjust="spacing" textLength="8" x="314.1796" y="200.7072">1</text><text fill="#000000" font-family="sans-serif" font-size="13" lengthAdjust="spacing" textLength="8" x="252.9671" y="293.5891">1</text></g><!--link MainApplication to WiFiManager--><g id="link_MainApplication_WiFiManager"><path codeLine="46" d="M157.07,55.24 C143.93,63.16 130.76,73.1 121,85 C92.27,120.04 78.11,171.72 71.69,203.82 " fill="none" id="MainApplication-to-WiFiManager" style="stroke:#181818;stroke-width:1.0;"/><polygon fill="#181818" points="70.58,208.57,76.2268,200.5007,71.5359,203.6622,68.3744,198.9713,70.58,208.57" style="stroke:#181818;stroke-width:1.0;"/><text fill="#000000" font-family="sans-serif" font-size="13" lengthAdjust="spacing" textLength="30" x="122" y="98.5684">Uses</text><text fill="#000000" font-family="sans-serif" font-size="13" lengthAdjust="spacing" textLength="8" x="135.6808" y="75.5828">1</text><text fill="#000000" font-family="sans-serif" font-size="13" lengthAdjust="spacing" textLength="8" x="62.4776" y="199.3933">1</text></g><!--link MainApplication to PubSubClientManager--><g id="link_MainApplication_PubSubClientManager"><path codeLine="47" d="M204.7,55.37 C202.01,75.6 198.44,105.66 197,132 C195.83,153.3 193.59,158.94 197,180 C203.9,222.62 221.32,269.59 233.41,298.82 " fill="none" id="MainApplication-to-PubSubClientManager" style="stroke:#181818;stroke-width:1.0;"/><polygon fill="#181818" points="235.61,303.06,235.83,293.2136,233.6819,298.4467,228.4487,296.2986,235.61,303.06" style="stroke:#181818;stroke-width:1.0;"/><text fill="#000000" font-family="sans-serif" font-size="13" lengthAdjust="spacing" textLength="30" x="198" y="161.0684">Uses</text><text fill="#000000" font-family="sans-serif" font-size="13" lengthAdjust="spacing" textLength="8" x="194.9206" y="75.7445">1</text><text fill="#000000" font-family="sans-serif" font-size="13" lengthAdjust="spacing" textLength="8" x="224.1024" y="293.8857">1</text></g><!--link MainApplication to SensorManager--><g id="link_MainApplication_SensorManager"><path codeLine="48" d="M272.56,55.42 C331.02,76.63 416.94,107.81 477.02,129.61 " fill="none" id="MainApplication-to-SensorManager" style="stroke:#181818;stroke-width:1.0;"/><polygon fill="#181818" points="481.39,131.55,474.3055,124.7082,476.6927,129.8367,471.5642,132.2239,481.39,131.55" style="stroke:#181818;stroke-width:1.0;"/><text fill="#000000" font-family="sans-serif" font-size="13" lengthAdjust="spacing" textLength="30" x="398" y="98.5684">Uses</text><text fill="#000000" font-family="sans-serif" font-size="13" lengthAdjust="spacing" textLength="8" x="278.5645" y="75.4058">1</text><text fill="#000000" font-family="sans-serif" font-size="13" lengthAdjust="spacing" textLength="8" x="461.3112" y="123.0575">1</text></g><!--link MainApplication to MQTTMessageHandler--><g id="link_MainApplication_MQTTMessageHandler"><path codeLine="49" d="M232.95,55.42 C254.89,76.02 286.85,106.03 309.94,127.71 " fill="none" id="MainApplication-to-MQTTMessageHandler" style="stroke:#181818;stroke-width:1.0;"/><polygon fill="#181818" points="313.14,130.66,309.3277,121.5789,309.499,127.2332,303.8447,127.4045,313.14,130.66" style="stroke:#181818;stroke-width:1.0;"/><text fill="#000000" font-family="sans-serif" font-size="13" lengthAdjust="spacing" textLength="30" x="282" y="98.5684">Uses</text><text fill="#000000" font-family="sans-serif" font-size="13" lengthAdjust="spacing" textLength="8" x="229.7947" y="75.4058">1</text><text fill="#000000" font-family="sans-serif" font-size="13" lengthAdjust="spacing" textLength="8" x="298.7446" y="121.1091">1</text></g><!--SRC=[hPB1QiCm38RlUGgJOw4Tk-PG61qZby1AKdPM7B49N2TOpg6KlVlSfX0bk2I7vU9O-ZzP-crjW5bzqGSLOE4RdReclqcYx-7FlYxx-c08hO-aIxJSkaYYE5PLWSmXdeDjp2mBPD-wpf06JwsLgLiVmt4Xgi9tQAr5xR4fFNYCTxOWVS-heT67hi9pXmvyx_2-p_ipDUGlWW0JLg5xoezMj6Gcgbj0LfOEfw-fscxtOTtjDgaSEbE3XfEOzV_4JRmRoUbjpfZHnBN04mzNuiBFbSHigl3Fsb6D_18oXlWd58Yyox5A6dtkcHgK0PuzMqdAsytKYHVayOCMiUdyAu38l0_g3m00]--></g></svg>