<?xml version="1.0" encoding="us-ascii" standalone="no"?><svg xmlns="http://www.w3.org/2000/svg" xmlns:xlink="http://www.w3.org/1999/xlink" contentStyleType="text/css" height="840px" preserveAspectRatio="none" style="width:1113px;height:840px;background:#FFFFFF;" version="1.1" viewBox="0 0 1113 840" width="1113px" zoomAndPan="magnify"><defs/><g><!--class Arduino--><g id="elem_Arduino"><rect codeLine="2" fill="#F1F1F1" height="80.9766" id="Arduino" rx="2.5" ry="2.5" style="stroke:#181818;stroke-width:0.5;" width="112" x="706.5" y="7"/><ellipse cx="732.3" cy="23" fill="#ADD1B2" rx="11" ry="11" style="stroke:#181818;stroke-width:1.0;"/><path d="M735.2731,28.6431 Q734.6921,28.9419 734.0529,29.0913 Q733.4138,29.2407 732.7082,29.2407 Q730.2014,29.2407 728.8815,27.5889 Q727.5617,25.937 727.5617,22.8159 Q727.5617,19.6865 728.8815,18.0347 Q730.2014,16.3828 732.7082,16.3828 Q733.4138,16.3828 734.0612,16.5322 Q734.7087,16.6816 735.2731,16.9805 L735.2731,19.7031 Q734.6423,19.1221 734.0488,18.8523 Q733.4553,18.5825 732.8244,18.5825 Q731.4797,18.5825 730.7949,19.6492 Q730.1101,20.7158 730.1101,22.8159 Q730.1101,24.9077 730.7949,25.9744 Q731.4797,27.041 732.8244,27.041 Q733.4553,27.041 734.0488,26.7712 Q734.6423,26.5015 735.2731,25.9204 Z " fill="#000000"/><text fill="#000000" font-family="sans-serif" font-size="14" lengthAdjust="spacing" textLength="56" x="748.7" y="28.291">Arduino</text><line style="stroke:#181818;stroke-width:0.5;" x1="707.5" x2="817.5" y1="39" y2="39"/><line style="stroke:#181818;stroke-width:0.5;" x1="707.5" x2="817.5" y1="47" y2="47"/><ellipse cx="717.5" cy="60.7441" fill="#84BE84" rx="3" ry="3" style="stroke:#038048;stroke-width:1.0;"/><text fill="#000000" font-family="sans-serif" font-size="14" lengthAdjust="spacing" textLength="86" x="726.5" y="64.5352">begin(): void</text><ellipse cx="717.5" cy="77.2324" fill="#84BE84" rx="3" ry="3" style="stroke:#038048;stroke-width:1.0;"/><text fill="#000000" font-family="sans-serif" font-size="14" lengthAdjust="spacing" textLength="73" x="726.5" y="81.0234">end(): void</text></g><!--class SensorManager--><g id="elem_SensorManager"><rect codeLine="7" fill="#F1F1F1" height="80.9766" id="SensorManager" rx="2.5" ry="2.5" style="stroke:#181818;stroke-width:0.5;" width="185" x="405" y="321.93"/><ellipse cx="440.7" cy="337.93" fill="#ADD1B2" rx="11" ry="11" style="stroke:#181818;stroke-width:1.0;"/><path d="M443.6731,343.5731 Q443.0921,343.8719 442.4529,344.0213 Q441.8138,344.1707 441.1082,344.1707 Q438.6014,344.1707 437.2815,342.5189 Q435.9617,340.867 435.9617,337.7459 Q435.9617,334.6165 437.2815,332.9647 Q438.6014,331.3128 441.1082,331.3128 Q441.8138,331.3128 442.4612,331.4622 Q443.1087,331.6116 443.6731,331.9105 L443.6731,334.6331 Q443.0423,334.0521 442.4488,333.7823 Q441.8553,333.5125 441.2244,333.5125 Q439.8797,333.5125 439.1949,334.5792 Q438.5101,335.6458 438.5101,337.7459 Q438.5101,339.8377 439.1949,340.9044 Q439.8797,341.971 441.2244,341.971 Q441.8553,341.971 442.4488,341.7012 Q443.0423,341.4315 443.6731,340.8504 Z " fill="#000000"/><text fill="#000000" font-family="sans-serif" font-size="14" lengthAdjust="spacing" textLength="107" x="459.3" y="343.221">SensorManager</text><line style="stroke:#181818;stroke-width:0.5;" x1="406" x2="589" y1="353.93" y2="353.93"/><line style="stroke:#181818;stroke-width:0.5;" x1="406" x2="589" y1="361.93" y2="361.93"/><ellipse cx="416" cy="375.6741" fill="#84BE84" rx="3" ry="3" style="stroke:#038048;stroke-width:1.0;"/><text fill="#000000" font-family="sans-serif" font-size="14" lengthAdjust="spacing" textLength="159" x="425" y="379.4652">initializeSensors(): void</text><ellipse cx="416" cy="392.1624" fill="#84BE84" rx="3" ry="3" style="stroke:#038048;stroke-width:1.0;"/><text fill="#000000" font-family="sans-serif" font-size="14" lengthAdjust="spacing" textLength="132" x="425" y="395.9534">readSensors(): void</text></g><!--class SensorBuilder--><g id="elem_SensorBuilder"><rect codeLine="12" fill="#F1F1F1" height="64.4883" id="SensorBuilder" rx="2.5" ry="2.5" style="stroke:#181818;stroke-width:0.5;" width="127" x="399" y="504.12"/><ellipse cx="414" cy="520.12" fill="#B4A7E5" rx="11" ry="11" style="stroke:#181818;stroke-width:1.0;"/><path d="M409.9277,515.8851 L409.9277,513.7269 L417.3071,513.7269 L417.3071,515.8851 L414.8418,515.8851 L414.8418,523.9618 L417.3071,523.9618 L417.3071,526.12 L409.9277,526.12 L409.9277,523.9618 L412.3931,523.9618 L412.3931,515.8851 Z " fill="#000000"/><text fill="#000000" font-family="sans-serif" font-size="14" font-style="italic" lengthAdjust="spacing" textLength="95" x="428" y="525.411">SensorBuilder</text><line style="stroke:#181818;stroke-width:0.5;" x1="400" x2="525" y1="536.12" y2="536.12"/><line style="stroke:#181818;stroke-width:0.5;" x1="400" x2="525" y1="544.12" y2="544.12"/><text fill="#000000" font-family="sans-serif" font-size="14" lengthAdjust="spacing" textLength="111" x="405" y="561.6552">readData(): float</text></g><!--class WiFiManager--><g id="elem_WiFiManager"><rect codeLine="16" fill="#F1F1F1" height="64.4883" id="WiFiManager" rx="2.5" ry="2.5" style="stroke:#181818;stroke-width:0.5;" width="363" x="7" y="330.17"/><ellipse cx="140.25" cy="346.17" fill="#ADD1B2" rx="11" ry="11" style="stroke:#181818;stroke-width:1.0;"/><path d="M143.2231,351.8131 Q142.6421,352.1119 142.0029,352.2613 Q141.3638,352.4107 140.6582,352.4107 Q138.1514,352.4107 136.8315,350.7589 Q135.5117,349.107 135.5117,345.9859 Q135.5117,342.8565 136.8315,341.2047 Q138.1514,339.5528 140.6582,339.5528 Q141.3638,339.5528 142.0112,339.7022 Q142.6587,339.8516 143.2231,340.1505 L143.2231,342.8731 Q142.5923,342.2921 141.9988,342.0223 Q141.4053,341.7525 140.7744,341.7525 Q139.4297,341.7525 138.7449,342.8192 Q138.0601,343.8858 138.0601,345.9859 Q138.0601,348.0777 138.7449,349.1444 Q139.4297,350.211 140.7744,350.211 Q141.4053,350.211 141.9988,349.9412 Q142.5923,349.6715 143.2231,349.0904 Z " fill="#000000"/><text fill="#000000" font-family="sans-serif" font-size="14" lengthAdjust="spacing" textLength="88" x="160.75" y="351.461">WiFiManager</text><line style="stroke:#181818;stroke-width:0.5;" x1="8" x2="369" y1="362.17" y2="362.17"/><line style="stroke:#181818;stroke-width:0.5;" x1="8" x2="369" y1="370.17" y2="370.17"/><ellipse cx="18" cy="383.9141" fill="#84BE84" rx="3" ry="3" style="stroke:#038048;stroke-width:1.0;"/><text fill="#000000" font-family="sans-serif" font-size="14" lengthAdjust="spacing" textLength="337" x="27" y="387.7052">connect(ssid: string, password: string): WiFiClient</text></g><!--class PubSubClientManager--><g id="elem_PubSubClientManager"><rect codeLine="20" fill="#F1F1F1" height="64.4883" id="PubSubClientManager" rx="2.5" ry="2.5" style="stroke:#181818;stroke-width:0.5;" width="313" x="736" y="504.12"/><ellipse cx="812.25" cy="520.12" fill="#ADD1B2" rx="11" ry="11" style="stroke:#181818;stroke-width:1.0;"/><path d="M815.2231,525.7631 Q814.6421,526.0619 814.0029,526.2113 Q813.3638,526.3607 812.6582,526.3607 Q810.1514,526.3607 808.8315,524.7089 Q807.5117,523.057 807.5117,519.9359 Q807.5117,516.8065 808.8315,515.1547 Q810.1514,513.5028 812.6582,513.5028 Q813.3638,513.5028 814.0112,513.6522 Q814.6587,513.8016 815.2231,514.1005 L815.2231,516.8231 Q814.5923,516.2421 813.9988,515.9723 Q813.4053,515.7025 812.7744,515.7025 Q811.4297,515.7025 810.7449,516.7692 Q810.0601,517.8358 810.0601,519.9359 Q810.0601,522.0277 810.7449,523.0944 Q811.4297,524.161 812.7744,524.161 Q813.4053,524.161 813.9988,523.8912 Q814.5923,523.6215 815.2231,523.0404 Z " fill="#000000"/><text fill="#000000" font-family="sans-serif" font-size="14" lengthAdjust="spacing" textLength="152" x="832.75" y="525.411">PubSubClientManager</text><line style="stroke:#181818;stroke-width:0.5;" x1="737" x2="1048" y1="536.12" y2="536.12"/><line style="stroke:#181818;stroke-width:0.5;" x1="737" x2="1048" y1="544.12" y2="544.12"/><ellipse cx="747" cy="557.8641" fill="#84BE84" rx="3" ry="3" style="stroke:#038048;stroke-width:1.0;"/><text fill="#000000" font-family="sans-serif" font-size="14" lengthAdjust="spacing" textLength="287" x="756" y="561.6552">connect(mqttServer: string): PubSubClient</text></g><!--class MQTTMessageHandler--><g id="elem_MQTTMessageHandler"><rect codeLine="24" fill="#F1F1F1" height="64.4883" id="MQTTMessageHandler" rx="2.5" ry="2.5" style="stroke:#181818;stroke-width:0.5;" width="377" x="695" y="330.17"/><ellipse cx="802.25" cy="346.17" fill="#ADD1B2" rx="11" ry="11" style="stroke:#181818;stroke-width:1.0;"/><path d="M805.2231,351.8131 Q804.6421,352.1119 804.0029,352.2613 Q803.3638,352.4107 802.6582,352.4107 Q800.1514,352.4107 798.8315,350.7589 Q797.5117,349.107 797.5117,345.9859 Q797.5117,342.8565 798.8315,341.2047 Q800.1514,339.5528 802.6582,339.5528 Q803.3638,339.5528 804.0112,339.7022 Q804.6587,339.8516 805.2231,340.1505 L805.2231,342.8731 Q804.5923,342.2921 803.9988,342.0223 Q803.4053,341.7525 802.7744,341.7525 Q801.4297,341.7525 800.7449,342.8192 Q800.0601,343.8858 800.0601,345.9859 Q800.0601,348.0777 800.7449,349.1444 Q801.4297,350.211 802.7744,350.211 Q803.4053,350.211 803.9988,349.9412 Q804.5923,349.6715 805.2231,349.0904 Z " fill="#000000"/><text fill="#000000" font-family="sans-serif" font-size="14" lengthAdjust="spacing" textLength="154" x="822.75" y="351.461">MQTTMessageHandler</text><line style="stroke:#181818;stroke-width:0.5;" x1="696" x2="1071" y1="362.17" y2="362.17"/><line style="stroke:#181818;stroke-width:0.5;" x1="696" x2="1071" y1="370.17" y2="370.17"/><ellipse cx="706" cy="383.9141" fill="#84BE84" rx="3" ry="3" style="stroke:#038048;stroke-width:1.0;"/><text fill="#000000" font-family="sans-serif" font-size="14" lengthAdjust="spacing" textLength="351" x="715" y="387.7052">handleMessage(topic: string, message: string): void</text></g><!--class MainApplication--><g id="elem_MainApplication"><rect codeLine="28" fill="#F1F1F1" height="113.9531" id="MainApplication" rx="2.5" ry="2.5" style="stroke:#181818;stroke-width:0.5;" width="339" x="473" y="147.97"/><ellipse cx="582.75" cy="163.97" fill="#ADD1B2" rx="11" ry="11" style="stroke:#181818;stroke-width:1.0;"/><path d="M585.7231,169.6131 Q585.1421,169.9119 584.5029,170.0613 Q583.8638,170.2107 583.1582,170.2107 Q580.6514,170.2107 579.3315,168.5589 Q578.0117,166.907 578.0117,163.7859 Q578.0117,160.6565 579.3315,159.0047 Q580.6514,157.3528 583.1582,157.3528 Q583.8638,157.3528 584.5112,157.5022 Q585.1587,157.6516 585.7231,157.9505 L585.7231,160.6731 Q585.0923,160.0921 584.4988,159.8223 Q583.9053,159.5525 583.2744,159.5525 Q581.9297,159.5525 581.2449,160.6192 Q580.5601,161.6858 580.5601,163.7859 Q580.5601,165.8777 581.2449,166.9444 Q581.9297,168.011 583.2744,168.011 Q583.9053,168.011 584.4988,167.7412 Q585.0923,167.4715 585.7231,166.8904 Z " fill="#000000"/><text fill="#000000" font-family="sans-serif" font-size="14" lengthAdjust="spacing" textLength="111" x="603.25" y="169.261">MainApplication</text><line style="stroke:#181818;stroke-width:0.5;" x1="474" x2="811" y1="179.97" y2="179.97"/><rect fill="none" height="6" style="stroke:#C82930;stroke-width:1.0;" width="6" x="481" y="190.7141"/><text fill="#000000" font-family="sans-serif" font-size="14" lengthAdjust="spacing" textLength="180" x="493" y="197.5052">wifiManager: WiFiManager</text><rect fill="none" height="6" style="stroke:#C82930;stroke-width:1.0;" width="6" x="481" y="207.2024"/><text fill="#000000" font-family="sans-serif" font-size="14" lengthAdjust="spacing" textLength="313" x="493" y="213.9934">pubSubClientManager: PubSubClientManager</text><rect fill="none" height="6" style="stroke:#C82930;stroke-width:1.0;" width="6" x="481" y="223.6907"/><text fill="#000000" font-family="sans-serif" font-size="14" lengthAdjust="spacing" textLength="221" x="493" y="230.4817">sensorManager: SensorManager</text><rect fill="none" height="6" style="stroke:#C82930;stroke-width:1.0;" width="6" x="481" y="240.179"/><text fill="#000000" font-family="sans-serif" font-size="14" lengthAdjust="spacing" textLength="307" x="493" y="246.97">mqttMessageHandler: MQTTMessageHandler</text><line style="stroke:#181818;stroke-width:0.5;" x1="474" x2="811" y1="253.9231" y2="253.9231"/></g><!--class WiFiClient--><g id="elem_WiFiClient"><rect codeLine="35" fill="#F1F1F1" height="146.9297" id="WiFiClient" rx="2.5" ry="2.5" style="stroke:#181818;stroke-width:0.5;" width="215" x="81" y="462.9"/><ellipse cx="150.25" cy="478.9" fill="#ADD1B2" rx="11" ry="11" style="stroke:#181818;stroke-width:1.0;"/><path d="M153.2231,484.5431 Q152.6421,484.8419 152.0029,484.9913 Q151.3638,485.1407 150.6582,485.1407 Q148.1514,485.1407 146.8315,483.4889 Q145.5117,481.837 145.5117,478.7159 Q145.5117,475.5865 146.8315,473.9347 Q148.1514,472.2828 150.6582,472.2828 Q151.3638,472.2828 152.0112,472.4322 Q152.6587,472.5816 153.2231,472.8805 L153.2231,475.6031 Q152.5923,475.0221 151.9988,474.7523 Q151.4053,474.4825 150.7744,474.4825 Q149.4297,474.4825 148.7449,475.5492 Q148.0601,476.6158 148.0601,478.7159 Q148.0601,480.8077 148.7449,481.8744 Q149.4297,482.941 150.7744,482.941 Q151.4053,482.941 151.9988,482.6712 Q152.5923,482.4015 153.2231,481.8204 Z " fill="#000000"/><text fill="#000000" font-family="sans-serif" font-size="14" lengthAdjust="spacing" textLength="68" x="170.75" y="484.191">WiFiClient</text><line style="stroke:#181818;stroke-width:0.5;" x1="82" x2="295" y1="494.9" y2="494.9"/><ellipse cx="92" cy="508.6441" fill="none" rx="3" ry="3" style="stroke:#038048;stroke-width:1.0;"/><text fill="#000000" font-family="sans-serif" font-size="14" lengthAdjust="spacing" textLength="75" x="101" y="512.4352">ssid: string</text><ellipse cx="92" cy="525.1324" fill="none" rx="3" ry="3" style="stroke:#038048;stroke-width:1.0;"/><text fill="#000000" font-family="sans-serif" font-size="14" lengthAdjust="spacing" textLength="114" x="101" y="528.9234">password: string</text><ellipse cx="92" cy="541.6207" fill="none" rx="3" ry="3" style="stroke:#038048;stroke-width:1.0;"/><text fill="#000000" font-family="sans-serif" font-size="14" lengthAdjust="spacing" textLength="89" x="101" y="545.4117">status: string</text><line style="stroke:#181818;stroke-width:0.5;" x1="82" x2="295" y1="552.3648" y2="552.3648"/><ellipse cx="92" cy="566.109" fill="#84BE84" rx="3" ry="3" style="stroke:#038048;stroke-width:1.0;"/><text fill="#000000" font-family="sans-serif" font-size="14" lengthAdjust="spacing" textLength="101" x="101" y="569.9">connect(): void</text><ellipse cx="92" cy="582.5973" fill="#84BE84" rx="3" ry="3" style="stroke:#038048;stroke-width:1.0;"/><text fill="#000000" font-family="sans-serif" font-size="14" lengthAdjust="spacing" textLength="121" x="101" y="586.3883">disconnect(): void</text><ellipse cx="92" cy="599.0855" fill="#84BE84" rx="3" ry="3" style="stroke:#038048;stroke-width:1.0;"/><text fill="#000000" font-family="sans-serif" font-size="14" lengthAdjust="spacing" textLength="189" x="101" y="602.8766">sendData(data: string): void</text></g><!--class PubSubClient--><g id="elem_PubSubClient"><rect codeLine="44" fill="#F1F1F1" height="163.418" id="PubSubClient" rx="2.5" ry="2.5" style="stroke:#181818;stroke-width:0.5;" width="322" x="740.5" y="669.83"/><ellipse cx="851.25" cy="685.83" fill="#ADD1B2" rx="11" ry="11" style="stroke:#181818;stroke-width:1.0;"/><path d="M854.2231,691.4731 Q853.6421,691.7719 853.0029,691.9213 Q852.3638,692.0707 851.6582,692.0707 Q849.1514,692.0707 847.8315,690.4189 Q846.5117,688.767 846.5117,685.6459 Q846.5117,682.5165 847.8315,680.8647 Q849.1514,679.2128 851.6582,679.2128 Q852.3638,679.2128 853.0112,679.3622 Q853.6587,679.5116 854.2231,679.8105 L854.2231,682.5331 Q853.5923,681.9521 852.9988,681.6823 Q852.4053,681.4125 851.7744,681.4125 Q850.4297,681.4125 849.7449,682.4792 Q849.0601,683.5458 849.0601,685.6459 Q849.0601,687.7377 849.7449,688.8044 Q850.4297,689.871 851.7744,689.871 Q852.4053,689.871 852.9988,689.6012 Q853.5923,689.3315 854.2231,688.7504 Z " fill="#000000"/><text fill="#000000" font-family="sans-serif" font-size="14" lengthAdjust="spacing" textLength="92" x="871.75" y="691.121">PubSubClient</text><line style="stroke:#181818;stroke-width:0.5;" x1="741.5" x2="1061.5" y1="701.83" y2="701.83"/><ellipse cx="751.5" cy="715.5741" fill="none" rx="3" ry="3" style="stroke:#038048;stroke-width:1.0;"/><text fill="#000000" font-family="sans-serif" font-size="14" lengthAdjust="spacing" textLength="123" x="760.5" y="719.3652">mqttServer: string</text><ellipse cx="751.5" cy="732.0624" fill="none" rx="3" ry="3" style="stroke:#038048;stroke-width:1.0;"/><text fill="#000000" font-family="sans-serif" font-size="14" lengthAdjust="spacing" textLength="89" x="760.5" y="735.8534">status: string</text><line style="stroke:#181818;stroke-width:0.5;" x1="741.5" x2="1061.5" y1="742.8066" y2="742.8066"/><ellipse cx="751.5" cy="756.5507" fill="#84BE84" rx="3" ry="3" style="stroke:#038048;stroke-width:1.0;"/><text fill="#000000" font-family="sans-serif" font-size="14" lengthAdjust="spacing" textLength="101" x="760.5" y="760.3417">connect(): void</text><ellipse cx="751.5" cy="773.039" fill="#84BE84" rx="3" ry="3" style="stroke:#038048;stroke-width:1.0;"/><text fill="#000000" font-family="sans-serif" font-size="14" lengthAdjust="spacing" textLength="121" x="760.5" y="776.83">disconnect(): void</text><ellipse cx="751.5" cy="789.5273" fill="#84BE84" rx="3" ry="3" style="stroke:#038048;stroke-width:1.0;"/><text fill="#000000" font-family="sans-serif" font-size="14" lengthAdjust="spacing" textLength="195" x="760.5" y="793.3183">subscribe(topic: string): void</text><ellipse cx="751.5" cy="806.0155" fill="#84BE84" rx="3" ry="3" style="stroke:#038048;stroke-width:1.0;"/><text fill="#000000" font-family="sans-serif" font-size="14" lengthAdjust="spacing" textLength="213" x="760.5" y="809.8066">unsubscribe(topic: string): void</text><ellipse cx="751.5" cy="822.5038" fill="#84BE84" rx="3" ry="3" style="stroke:#038048;stroke-width:1.0;"/><text fill="#000000" font-family="sans-serif" font-size="14" lengthAdjust="spacing" textLength="296" x="760.5" y="826.2948">publish(topic: string, message: string): void</text></g><!--class DHTSensor--><g id="elem_DHTSensor"><rect codeLine="54" fill="#F1F1F1" height="97.4648" id="DHTSensor" rx="2.5" ry="2.5" style="stroke:#181818;stroke-width:0.5;" width="150" x="555.5" y="702.81"/><ellipse cx="589.4" cy="718.81" fill="#ADD1B2" rx="11" ry="11" style="stroke:#181818;stroke-width:1.0;"/><path d="M592.3731,724.4531 Q591.7921,724.7519 591.1529,724.9013 Q590.5138,725.0507 589.8082,725.0507 Q587.3014,725.0507 585.9815,723.3989 Q584.6617,721.747 584.6617,718.6259 Q584.6617,715.4965 585.9815,713.8447 Q587.3014,712.1928 589.8082,712.1928 Q590.5138,712.1928 591.1612,712.3422 Q591.8087,712.4916 592.3731,712.7905 L592.3731,715.5131 Q591.7423,714.9321 591.1488,714.6623 Q590.5553,714.3925 589.9244,714.3925 Q588.5797,714.3925 587.8949,715.4592 Q587.2101,716.5258 587.2101,718.6259 Q587.2101,720.7177 587.8949,721.7844 Q588.5797,722.851 589.9244,722.851 Q590.5553,722.851 591.1488,722.5812 Q591.7423,722.3115 592.3731,721.7304 Z " fill="#000000"/><text fill="#000000" font-family="sans-serif" font-size="14" lengthAdjust="spacing" textLength="76" x="607.6" y="724.101">DHTSensor</text><line style="stroke:#181818;stroke-width:0.5;" x1="556.5" x2="704.5" y1="734.81" y2="734.81"/><ellipse cx="566.5" cy="748.5541" fill="none" rx="3" ry="3" style="stroke:#038048;stroke-width:1.0;"/><text fill="#000000" font-family="sans-serif" font-size="14" lengthAdjust="spacing" textLength="124" x="575.5" y="752.3452">temperature: float</text><ellipse cx="566.5" cy="765.0424" fill="none" rx="3" ry="3" style="stroke:#038048;stroke-width:1.0;"/><text fill="#000000" font-family="sans-serif" font-size="14" lengthAdjust="spacing" textLength="99" x="575.5" y="768.8334">humidity: float</text><line style="stroke:#181818;stroke-width:0.5;" x1="556.5" x2="704.5" y1="775.7866" y2="775.7866"/><ellipse cx="566.5" cy="789.5307" fill="#84BE84" rx="3" ry="3" style="stroke:#038048;stroke-width:1.0;"/><text fill="#000000" font-family="sans-serif" font-size="14" lengthAdjust="spacing" textLength="109" x="575.5" y="793.3217">readData(): void</text></g><!--class DallasTemperatureSensor--><g id="elem_DallasTemperatureSensor"><rect codeLine="60" fill="#F1F1F1" height="80.9766" id="DallasTemperatureSensor" rx="2.5" ry="2.5" style="stroke:#181818;stroke-width:0.5;" width="209" x="127" y="711.05"/><ellipse cx="142" cy="727.05" fill="#ADD1B2" rx="11" ry="11" style="stroke:#181818;stroke-width:1.0;"/><path d="M144.9731,732.6931 Q144.3921,732.9919 143.7529,733.1413 Q143.1138,733.2907 142.4082,733.2907 Q139.9014,733.2907 138.5815,731.6389 Q137.2617,729.987 137.2617,726.8659 Q137.2617,723.7365 138.5815,722.0847 Q139.9014,720.4328 142.4082,720.4328 Q143.1138,720.4328 143.7612,720.5822 Q144.4087,720.7316 144.9731,721.0305 L144.9731,723.7531 Q144.3423,723.1721 143.7488,722.9023 Q143.1553,722.6325 142.5244,722.6325 Q141.1797,722.6325 140.4949,723.6992 Q139.8101,724.7658 139.8101,726.8659 Q139.8101,728.9577 140.4949,730.0244 Q141.1797,731.091 142.5244,731.091 Q143.1553,731.091 143.7488,730.8212 Q144.3423,730.5515 144.9731,729.9704 Z " fill="#000000"/><text fill="#000000" font-family="sans-serif" font-size="14" lengthAdjust="spacing" textLength="177" x="156" y="732.341">DallasTemperatureSensor</text><line style="stroke:#181818;stroke-width:0.5;" x1="128" x2="335" y1="743.05" y2="743.05"/><ellipse cx="138" cy="756.7941" fill="none" rx="3" ry="3" style="stroke:#038048;stroke-width:1.0;"/><text fill="#000000" font-family="sans-serif" font-size="14" lengthAdjust="spacing" textLength="124" x="147" y="760.5852">temperature: float</text><line style="stroke:#181818;stroke-width:0.5;" x1="128" x2="335" y1="767.5383" y2="767.5383"/><ellipse cx="138" cy="781.2824" fill="#84BE84" rx="3" ry="3" style="stroke:#038048;stroke-width:1.0;"/><text fill="#000000" font-family="sans-serif" font-size="14" lengthAdjust="spacing" textLength="109" x="147" y="785.0734">readData(): void</text></g><!--class SoilSensor--><g id="elem_SoilSensor"><rect codeLine="65" fill="#F1F1F1" height="80.9766" id="SoilSensor" rx="2.5" ry="2.5" style="stroke:#181818;stroke-width:0.5;" width="150" x="370.5" y="711.05"/><ellipse cx="406.2" cy="727.05" fill="#ADD1B2" rx="11" ry="11" style="stroke:#181818;stroke-width:1.0;"/><path d="M409.1731,732.6931 Q408.5921,732.9919 407.9529,733.1413 Q407.3138,733.2907 406.6082,733.2907 Q404.1014,733.2907 402.7815,731.6389 Q401.4617,729.987 401.4617,726.8659 Q401.4617,723.7365 402.7815,722.0847 Q404.1014,720.4328 406.6082,720.4328 Q407.3138,720.4328 407.9612,720.5822 Q408.6087,720.7316 409.1731,721.0305 L409.1731,723.7531 Q408.5423,723.1721 407.9488,722.9023 Q407.3553,722.6325 406.7244,722.6325 Q405.3797,722.6325 404.6949,723.6992 Q404.0101,724.7658 404.0101,726.8659 Q404.0101,728.9577 404.6949,730.0244 Q405.3797,731.091 406.7244,731.091 Q407.3553,731.091 407.9488,730.8212 Q408.5423,730.5515 409.1731,729.9704 Z " fill="#000000"/><text fill="#000000" font-family="sans-serif" font-size="14" lengthAdjust="spacing" textLength="72" x="424.8" y="732.341">SoilSensor</text><line style="stroke:#181818;stroke-width:0.5;" x1="371.5" x2="519.5" y1="743.05" y2="743.05"/><ellipse cx="381.5" cy="756.7941" fill="none" rx="3" ry="3" style="stroke:#038048;stroke-width:1.0;"/><text fill="#000000" font-family="sans-serif" font-size="14" lengthAdjust="spacing" textLength="124" x="390.5" y="760.5852">soilHumidity: float</text><line style="stroke:#181818;stroke-width:0.5;" x1="371.5" x2="519.5" y1="767.5383" y2="767.5383"/><ellipse cx="381.5" cy="781.2824" fill="#84BE84" rx="3" ry="3" style="stroke:#038048;stroke-width:1.0;"/><text fill="#000000" font-family="sans-serif" font-size="14" lengthAdjust="spacing" textLength="109" x="390.5" y="785.0734">readData(): void</text></g><!--link Arduino to WiFiManager--><g id="link_Arduino_WiFiManager"><path codeLine="70" d="M706.28,60.25 C642.8,74.97 537.64,103.75 455.5,147.97 C363.95,197.26 272.64,279.07 224.14,325.79 " fill="none" id="Arduino-to-WiFiManager" style="stroke:#181818;stroke-width:1.0;"/><polygon fill="#181818" points="220.86,328.92,230.1084,325.5338,224.4523,325.4422,224.5439,319.7861,220.86,328.92" style="stroke:#181818;stroke-width:1.0;"/></g><!--link Arduino to PubSubClientManager--><g id="link_Arduino_PubSubClientManager"><path codeLine="71" d="M818.88,75.59 C896.66,116.53 1033.57,202.25 1089.5,321.93 C1104.74,354.53 1106.42,371.14 1089.5,402.9 C1065.86,447.29 1019.99,479.46 978.46,500.98 " fill="none" id="Arduino-to-PubSubClientManager" style="stroke:#181818;stroke-width:1.0;"/><polygon fill="#181818" points="974.16,503.68,983.995,503.1574,978.6149,501.4097,980.3626,496.0296,974.16,503.68" style="stroke:#181818;stroke-width:1.0;"/></g><!--link Arduino to MQTTMessageHandler--><g id="link_Arduino_MQTTMessageHandler"><path codeLine="72" d="M793.9,88.25 C806.47,105.75 820.15,127.06 829.5,147.97 C855.77,206.75 870.85,280.58 878.09,324.21 " fill="none" id="Arduino-to-MQTTMessageHandler" style="stroke:#181818;stroke-width:1.0;"/><polygon fill="#181818" points="879.02,328.9,881.5307,319.3765,878.2211,323.9642,873.6334,320.6547,879.02,328.9" style="stroke:#181818;stroke-width:1.0;"/></g><!--link Arduino to MainApplication--><g id="link_Arduino_MainApplication"><path codeLine="73" d="M731.91,88.12 C719.04,104.79 703.78,124.56 689.54,143.01 " fill="none" id="Arduino-to-MainApplication" style="stroke:#181818;stroke-width:1.0;"/><polygon fill="#181818" points="685.94,146.67,694.6077,141.9933,688.9968,142.7133,688.2769,137.1024,685.94,146.67" style="stroke:#181818;stroke-width:1.0;"/></g><!--link WiFiManager to WiFiClient--><g id="link_WiFiManager_WiFiClient"><path codeLine="75" d="M188.5,394.95 C188.5,412.4 188.5,434.92 188.5,456.8 " fill="none" id="WiFiManager-to-WiFiClient" style="stroke:#181818;stroke-width:1.0;"/><polygon fill="#181818" points="188.5,461.65,192.5,452.65,188.5,456.65,184.5,452.65,188.5,461.65" style="stroke:#181818;stroke-width:1.0;"/></g><!--link PubSubClientManager to PubSubClient--><g id="link_PubSubClientManager_PubSubClient"><path codeLine="77" d="M893.83,568.82 C894.89,593.89 896.42,630.25 897.84,663.86 " fill="none" id="PubSubClientManager-to-PubSubClient" style="stroke:#181818;stroke-width:1.0;"/><polygon fill="#181818" points="898.09,668.67,901.6998,659.5065,897.8753,663.6746,893.7072,659.8501,898.09,668.67" style="stroke:#181818;stroke-width:1.0;"/></g><!--reverse link SensorBuilder to DHTSensor--><g id="link_SensorBuilder_DHTSensor"><path codeLine="79" d="M499.95,584.89 C527.51,619.86 564.85,667.24 592.54,702.37 " fill="none" id="SensorBuilder-backto-DHTSensor" style="stroke:#181818;stroke-width:1.0;stroke-dasharray:7.0,7.0;"/><polygon fill="none" points="494.17,589.86,487.29,569.82,505.17,581.2,494.17,589.86" style="stroke:#181818;stroke-width:1.0;"/></g><!--reverse link SensorBuilder to DallasTemperatureSensor--><g id="link_SensorBuilder_DallasTemperatureSensor"><path codeLine="80" d="M412.76,583.27 C371.65,621.2 313.88,674.51 274.69,710.68 " fill="none" id="SensorBuilder-backto-DallasTemperatureSensor" style="stroke:#181818;stroke-width:1.0;stroke-dasharray:7.0,7.0;"/><polygon fill="none" points="407.72,578.47,427.17,570.05,417.22,588.76,407.72,578.47" style="stroke:#181818;stroke-width:1.0;"/></g><!--reverse link SensorBuilder to SoilSensor--><g id="link_SensorBuilder_SoilSensor"><path codeLine="81" d="M458.33,589.72 C455.35,627.03 451.41,676.43 448.69,710.59 " fill="none" id="SensorBuilder-backto-SoilSensor" style="stroke:#181818;stroke-width:1.0;stroke-dasharray:7.0,7.0;"/><polygon fill="none" points="451.42,589.2,459.99,569.82,465.38,590.31,451.42,589.2" style="stroke:#181818;stroke-width:1.0;"/></g><!--link MQTTMessageHandler to PubSubClientManager--><g id="link_MQTTMessageHandler_PubSubClientManager"><path codeLine="83" d="M885.15,394.95 C886.67,423.95 888.92,466.98 890.53,497.75 " fill="none" id="MQTTMessageHandler-to-PubSubClientManager" style="stroke:#181818;stroke-width:1.0;"/><polygon fill="#181818" points="890.84,502.74,894.3448,493.5359,890.5682,497.7474,886.3567,493.9708,890.84,502.74" style="stroke:#181818;stroke-width:1.0;"/></g><!--link MainApplication to WiFiManager--><g id="link_MainApplication_WiFiManager"><path codeLine="85" d="M477.63,262.41 C413.5,284.37 342.2,308.78 286.45,327.87 " fill="none" id="MainApplication-to-WiFiManager" style="stroke:#181818;stroke-width:1.0;"/><polygon fill="#181818" points="282.1,329.7,291.912,330.5512,286.8275,328.0718,289.3069,322.9873,282.1,329.7" style="stroke:#181818;stroke-width:1.0;"/></g><!--link MainApplication to PubSubClientManager--><g id="link_MainApplication_PubSubClientManager"><path codeLine="86" d="M640.59,262.31 C641.82,304.4 649.38,361.55 677.5,402.9 C707.71,447.32 758.25,479.56 802.74,501.11 " fill="none" id="MainApplication-to-PubSubClientManager" style="stroke:#181818;stroke-width:1.0;"/><polygon fill="#181818" points="807.13,503.68,800.7148,496.207,802.6131,501.5359,797.2842,503.4341,807.13,503.68" style="stroke:#181818;stroke-width:1.0;"/></g><!--link MainApplication to SensorManager--><g id="link_MainApplication_SensorManager"><path codeLine="87" d="M590.15,262.08 C573.25,280.2 554.76,300.02 538.78,317.16 " fill="none" id="MainApplication-to-SensorManager" style="stroke:#181818;stroke-width:1.0;"/><polygon fill="#181818" points="535.77,320.45,544.8356,316.601,539.1821,316.7952,538.9879,311.1417,535.77,320.45" style="stroke:#181818;stroke-width:1.0;"/></g><!--link MainApplication to MQTTMessageHandler--><g id="link_MainApplication_MQTTMessageHandler"><path codeLine="88" d="M729.85,262.3 C763.21,283.82 800.25,307.71 829.6,326.65 " fill="none" id="MainApplication-to-MQTTMessageHandler" style="stroke:#181818;stroke-width:1.0;"/><polygon fill="#181818" points="833.62,329.88,828.2124,321.6485,829.4141,327.1762,823.8864,328.3779,833.62,329.88" style="stroke:#181818;stroke-width:1.0;"/></g><!--link SensorManager to SensorBuilder--><g id="link_SensorManager_SensorBuilder"><path codeLine="90" d="M489.38,403.3 C483.58,431.82 475.81,469.97 470.12,497.92 " fill="none" id="SensorManager-to-SensorBuilder" style="stroke:#181818;stroke-width:1.0;"/><polygon fill="#181818" points="468.94,502.73,474.6589,494.7116,469.9398,497.831,466.8204,493.1119,468.94,502.73" style="stroke:#181818;stroke-width:1.0;"/></g><!--SRC=[fLJ9JiCm4BtxAt8iWl814K9Y4Ugb4gYLE3lnj8pasi5sMh7zEtQSa75m1OXB8i_oF6_UU6h9hIskZ6XHwUAD5SLf1LjKivEos6iKmG1AV1q_6Akxb1KegysIAxu5q-MXGeTSuYj4dwKO1hYOcZqMAWTcmsleyQvRb09CLqX8kUMEX_YDrDoDbp_Y7VPNnvfhhHJKRcOjYhAmpg3QdXMDZpreysNnG27pHY8eWdRVLgksYjOiwkxPkHMOFHY2HBD6hEN3Uhq4Qpt8WYiX1wYdxj1xPautM8zrxgAPWAUzNd9KLqqZiUOEjUeGvmVS33qeQKE2h_dEgCpH3B6M2bcckWP_89yoAZCiKstY9P4vbIISfw9qCOwxrbBBq7eoGW9jnkhBZrCY_ETe1odtMDPtJVzRI5lPsc0rKPT4jEhd6A-SHFlqrmcvNQoZS96SWrq3nbCnCBoTC8Fj3WMw5sAYRso2oAN_hqUWd_6FWwqqIffl_Ndnksg6rJIVNoPJJksvoQR-pBWcxlHvCKRNot1l_z1PRbbCQs0itMONx-VdeqHPPxxRkT2nbunbjisnVh3f4fasDEVF0UNYqgMHYyX8m98iWjFJPPy0]--></g></svg>