<?xml version="1.0" encoding="us-ascii" standalone="no"?><svg xmlns="http://www.w3.org/2000/svg" xmlns:xlink="http://www.w3.org/1999/xlink" contentStyleType="text/css" height="873px" preserveAspectRatio="none" style="width:2214px;height:873px;background:#FFFFFF;" version="1.1" viewBox="0 0 2214 873" width="2214px" zoomAndPan="magnify"><defs/><g><!--class Main--><g id="elem_Main"><rect codeLine="2" fill="#F1F1F1" height="48" id="Main" rx="2.5" ry="2.5" style="stroke:#181818;stroke-width:0.5;" width="65" x="1194.63" y="23.49"/><ellipse cx="1209.63" cy="39.49" fill="#ADD1B2" rx="11" ry="11" style="stroke:#181818;stroke-width:1.0;"/><path d="M1212.6031,45.1331 Q1212.0221,45.4319 1211.3829,45.5813 Q1210.7438,45.7307 1210.0382,45.7307 Q1207.5314,45.7307 1206.2115,44.0789 Q1204.8917,42.427 1204.8917,39.3059 Q1204.8917,36.1765 1206.2115,34.5247 Q1207.5314,32.8728 1210.0382,32.8728 Q1210.7438,32.8728 1211.3912,33.0222 Q1212.0387,33.1716 1212.6031,33.4705 L1212.6031,36.1931 Q1211.9723,35.6121 1211.3788,35.3423 Q1210.7853,35.0725 1210.1544,35.0725 Q1208.8097,35.0725 1208.1249,36.1392 Q1207.4401,37.2058 1207.4401,39.3059 Q1207.4401,41.3977 1208.1249,42.4644 Q1208.8097,43.531 1210.1544,43.531 Q1210.7853,43.531 1211.3788,43.2612 Q1211.9723,42.9915 1212.6031,42.4104 Z " fill="#000000"/><text fill="#000000" font-family="sans-serif" font-size="14" lengthAdjust="spacing" textLength="33" x="1223.63" y="44.781">Main</text><line style="stroke:#181818;stroke-width:0.5;" x1="1195.63" x2="1258.63" y1="55.49" y2="55.49"/><line style="stroke:#181818;stroke-width:0.5;" x1="1195.63" x2="1258.63" y1="63.49" y2="63.49"/></g><!--class Sensor--><g id="elem_Sensor"><rect codeLine="4" fill="#F1F1F1" height="80.9766" id="Sensor" rx="2.5" ry="2.5" style="stroke:#181818;stroke-width:0.5;" width="390" x="1032.13" y="363.15"/><ellipse cx="1199.38" cy="379.15" fill="#A9DCDF" rx="11" ry="11" style="stroke:#181818;stroke-width:1.0;"/><path d="M1199.4933,374.4981 L1198.3395,379.5699 L1200.6554,379.5699 Z M1197.9991,372.2569 L1200.9957,372.2569 L1204.3409,384.65 L1201.8922,384.65 L1201.1285,381.587 L1197.8497,381.587 L1197.1027,384.65 L1194.6539,384.65 Z " fill="#000000"/><text fill="#000000" font-family="sans-serif" font-size="14" font-style="italic" lengthAdjust="spacing" textLength="47" x="1219.88" y="384.441">Sensor</text><line style="stroke:#181818;stroke-width:0.5;" x1="1033.13" x2="1421.13" y1="395.15" y2="395.15"/><line style="stroke:#181818;stroke-width:0.5;" x1="1033.13" x2="1421.13" y1="403.15" y2="403.15"/><ellipse cx="1043.13" cy="416.8941" fill="#84BE84" rx="3" ry="3" style="stroke:#038048;stroke-width:1.0;"/><text fill="#000000" font-family="sans-serif" font-size="14" font-style="italic" lengthAdjust="spacing" textLength="118" x="1052.13" y="420.6852">readValue(): float</text><ellipse cx="1043.13" cy="433.3824" fill="#84BE84" rx="3" ry="3" style="stroke:#038048;stroke-width:1.0;"/><text fill="#000000" font-family="sans-serif" font-size="14" font-style="italic" lengthAdjust="spacing" textLength="364" x="1052.13" y="437.1734">readPublishValue(mqttManager: MqttManager*): void</text></g><!--class SensorFactory--><g id="elem_SensorFactory"><rect codeLine="9" fill="#F1F1F1" height="80.9766" id="SensorFactory" rx="2.5" ry="2.5" style="stroke:#181818;stroke-width:0.5;" width="592" x="931.13" y="172.71"/><ellipse cx="1174.38" cy="188.71" fill="#ADD1B2" rx="11" ry="11" style="stroke:#181818;stroke-width:1.0;"/><path d="M1177.3531,194.3531 Q1176.7721,194.6519 1176.1329,194.8013 Q1175.4938,194.9507 1174.7882,194.9507 Q1172.2814,194.9507 1170.9615,193.2989 Q1169.6417,191.647 1169.6417,188.5259 Q1169.6417,185.3965 1170.9615,183.7447 Q1172.2814,182.0928 1174.7882,182.0928 Q1175.4938,182.0928 1176.1412,182.2422 Q1176.7887,182.3916 1177.3531,182.6905 L1177.3531,185.4131 Q1176.7223,184.8321 1176.1288,184.5623 Q1175.5353,184.2925 1174.9044,184.2925 Q1173.5597,184.2925 1172.8749,185.3592 Q1172.1901,186.4258 1172.1901,188.5259 Q1172.1901,190.6177 1172.8749,191.6844 Q1173.5597,192.751 1174.9044,192.751 Q1175.5353,192.751 1176.1288,192.4812 Q1176.7223,192.2115 1177.3531,191.6304 Z " fill="#000000"/><text fill="#000000" font-family="sans-serif" font-size="14" lengthAdjust="spacing" textLength="97" x="1194.88" y="194.001">SensorFactory</text><line style="stroke:#181818;stroke-width:0.5;" x1="932.13" x2="1522.13" y1="204.71" y2="204.71"/><line style="stroke:#181818;stroke-width:0.5;" x1="932.13" x2="1522.13" y1="212.71" y2="212.71"/><ellipse cx="942.13" cy="226.4541" fill="#84BE84" rx="3" ry="3" style="stroke:#038048;stroke-width:1.0;"/><text fill="#000000" font-family="sans-serif" font-size="14" lengthAdjust="spacing" textLength="317" x="951.13" y="230.2452">createSensor(sensorType: std::string): Sensor*</text><ellipse cx="942.13" cy="242.9424" fill="#84BE84" rx="3" ry="3" style="stroke:#038048;stroke-width:1.0;"/><text fill="#000000" font-family="sans-serif" font-size="14" lengthAdjust="spacing" textLength="566" x="951.13" y="246.7334">initSensors(dhtSensor: DHT*, dallasTemperatureSensor: DallasTemperature*): void</text></g><!--class DHTSensor--><g id="elem_DHTSensor"><rect codeLine="14" fill="#F1F1F1" height="113.9531" id="DHTSensor" rx="2.5" ry="2.5" style="stroke:#181818;stroke-width:0.5;" width="390" x="784.13" y="537.1"/><ellipse cx="936.88" cy="553.1" fill="#ADD1B2" rx="11" ry="11" style="stroke:#181818;stroke-width:1.0;"/><path d="M939.8531,558.7431 Q939.2721,559.0419 938.6329,559.1913 Q937.9938,559.3407 937.2882,559.3407 Q934.7814,559.3407 933.4615,557.6889 Q932.1417,556.037 932.1417,552.9159 Q932.1417,549.7865 933.4615,548.1347 Q934.7814,546.4828 937.2882,546.4828 Q937.9938,546.4828 938.6412,546.6322 Q939.2887,546.7816 939.8531,547.0805 L939.8531,549.8031 Q939.2223,549.2221 938.6288,548.9523 Q938.0353,548.6825 937.4044,548.6825 Q936.0597,548.6825 935.3749,549.7492 Q934.6901,550.8158 934.6901,552.9159 Q934.6901,555.0077 935.3749,556.0744 Q936.0597,557.141 937.4044,557.141 Q938.0353,557.141 938.6288,556.8712 Q939.2223,556.6015 939.8531,556.0204 Z " fill="#000000"/><text fill="#000000" font-family="sans-serif" font-size="14" lengthAdjust="spacing" textLength="76" x="957.38" y="558.391">DHTSensor</text><line style="stroke:#181818;stroke-width:0.5;" x1="785.13" x2="1173.13" y1="569.1" y2="569.1"/><rect fill="none" height="6" style="stroke:#C82930;stroke-width:1.0;" width="6" x="792.13" y="579.8441"/><text fill="#000000" font-family="sans-serif" font-size="14" lengthAdjust="spacing" textLength="60" x="804.13" y="586.6352">dht: DHT</text><line style="stroke:#181818;stroke-width:0.5;" x1="785.13" x2="1173.13" y1="593.5883" y2="593.5883"/><ellipse cx="795.13" cy="607.3324" fill="#84BE84" rx="3" ry="3" style="stroke:#038048;stroke-width:1.0;"/><text fill="#000000" font-family="sans-serif" font-size="14" lengthAdjust="spacing" textLength="257" x="804.13" y="611.1234">DHTSensor(pin: uint8_t, type: uint8_t)</text><ellipse cx="795.13" cy="623.8207" fill="#84BE84" rx="3" ry="3" style="stroke:#038048;stroke-width:1.0;"/><text fill="#000000" font-family="sans-serif" font-size="14" font-style="italic" lengthAdjust="spacing" textLength="118" x="804.13" y="627.6117">readValue(): float</text><ellipse cx="795.13" cy="640.309" fill="#84BE84" rx="3" ry="3" style="stroke:#038048;stroke-width:1.0;"/><text fill="#000000" font-family="sans-serif" font-size="14" font-style="italic" lengthAdjust="spacing" textLength="364" x="804.13" y="644.1">readPublishValue(mqttManager: MqttManager*): void</text></g><!--class DallasTemperatureSensor--><g id="elem_DallasTemperatureSensor"><rect codeLine="21" fill="#F1F1F1" height="130.4414" id="DallasTemperatureSensor" rx="2.5" ry="2.5" style="stroke:#181818;stroke-width:0.5;" width="390" x="1209.13" y="528.86"/><ellipse cx="1311.38" cy="544.86" fill="#ADD1B2" rx="11" ry="11" style="stroke:#181818;stroke-width:1.0;"/><path d="M1314.3531,550.5031 Q1313.7721,550.8019 1313.1329,550.9513 Q1312.4938,551.1007 1311.7882,551.1007 Q1309.2814,551.1007 1307.9615,549.4489 Q1306.6417,547.797 1306.6417,544.6759 Q1306.6417,541.5465 1307.9615,539.8947 Q1309.2814,538.2428 1311.7882,538.2428 Q1312.4938,538.2428 1313.1412,538.3922 Q1313.7887,538.5416 1314.3531,538.8405 L1314.3531,541.5631 Q1313.7223,540.9821 1313.1288,540.7123 Q1312.5353,540.4425 1311.9044,540.4425 Q1310.5597,540.4425 1309.8749,541.5092 Q1309.1901,542.5758 1309.1901,544.6759 Q1309.1901,546.7677 1309.8749,547.8344 Q1310.5597,548.901 1311.9044,548.901 Q1312.5353,548.901 1313.1288,548.6312 Q1313.7223,548.3615 1314.3531,547.7804 Z " fill="#000000"/><text fill="#000000" font-family="sans-serif" font-size="14" lengthAdjust="spacing" textLength="177" x="1331.88" y="550.151">DallasTemperatureSensor</text><line style="stroke:#181818;stroke-width:0.5;" x1="1210.13" x2="1598.13" y1="560.86" y2="560.86"/><rect fill="none" height="6" style="stroke:#C82930;stroke-width:1.0;" width="6" x="1217.13" y="571.6041"/><text fill="#000000" font-family="sans-serif" font-size="14" lengthAdjust="spacing" textLength="122" x="1229.13" y="578.3952">oneWire: OneWire</text><rect fill="none" height="6" style="stroke:#C82930;stroke-width:1.0;" width="6" x="1217.13" y="588.0924"/><text fill="#000000" font-family="sans-serif" font-size="14" lengthAdjust="spacing" textLength="199" x="1229.13" y="594.8834">ds18b20: DallasTemperature</text><line style="stroke:#181818;stroke-width:0.5;" x1="1210.13" x2="1598.13" y1="601.8366" y2="601.8366"/><ellipse cx="1220.13" cy="615.5807" fill="#84BE84" rx="3" ry="3" style="stroke:#038048;stroke-width:1.0;"/><text fill="#000000" font-family="sans-serif" font-size="14" lengthAdjust="spacing" textLength="265" x="1229.13" y="619.3717">DallasTemperatureSensor(pin: uint8_t)</text><ellipse cx="1220.13" cy="632.069" fill="#84BE84" rx="3" ry="3" style="stroke:#038048;stroke-width:1.0;"/><text fill="#000000" font-family="sans-serif" font-size="14" font-style="italic" lengthAdjust="spacing" textLength="118" x="1229.13" y="635.86">readValue(): float</text><ellipse cx="1220.13" cy="648.5573" fill="#84BE84" rx="3" ry="3" style="stroke:#038048;stroke-width:1.0;"/><text fill="#000000" font-family="sans-serif" font-size="14" font-style="italic" lengthAdjust="spacing" textLength="364" x="1229.13" y="652.3483">readPublishValue(mqttManager: MqttManager*): void</text></g><!--class MqttManager--><g id="elem_MqttManager"><rect codeLine="29" fill="#F1F1F1" height="146.9297" id="MqttManager" rx="2.5" ry="2.5" style="stroke:#181818;stroke-width:0.5;" width="411" x="1198.63" y="719.3"/><ellipse cx="1354.38" cy="735.3" fill="#ADD1B2" rx="11" ry="11" style="stroke:#181818;stroke-width:1.0;"/><path d="M1357.3531,740.9431 Q1356.7721,741.2419 1356.1329,741.3913 Q1355.4938,741.5407 1354.7882,741.5407 Q1352.2814,741.5407 1350.9615,739.8889 Q1349.6417,738.237 1349.6417,735.1159 Q1349.6417,731.9865 1350.9615,730.3347 Q1352.2814,728.6828 1354.7882,728.6828 Q1355.4938,728.6828 1356.1412,728.8322 Q1356.7887,728.9816 1357.3531,729.2805 L1357.3531,732.0031 Q1356.7223,731.4221 1356.1288,731.1523 Q1355.5353,730.8825 1354.9044,730.8825 Q1353.5597,730.8825 1352.8749,731.9492 Q1352.1901,733.0158 1352.1901,735.1159 Q1352.1901,737.2077 1352.8749,738.2744 Q1353.5597,739.341 1354.9044,739.341 Q1355.5353,739.341 1356.1288,739.0712 Q1356.7223,738.8015 1357.3531,738.2204 Z " fill="#000000"/><text fill="#000000" font-family="sans-serif" font-size="14" lengthAdjust="spacing" textLength="91" x="1374.88" y="740.591">MqttManager</text><line style="stroke:#181818;stroke-width:0.5;" x1="1199.63" x2="1608.63" y1="751.3" y2="751.3"/><rect fill="none" height="6" style="stroke:#C82930;stroke-width:1.0;" width="6" x="1206.63" y="762.0441"/><text fill="#000000" font-family="sans-serif" font-size="14" lengthAdjust="spacing" textLength="172" x="1218.63" y="768.8352">mqttClient: PubSubClient</text><rect fill="none" height="6" style="stroke:#C82930;stroke-width:1.0;" width="6" x="1206.63" y="778.5324"/><text fill="#000000" font-family="sans-serif" font-size="14" lengthAdjust="spacing" textLength="340" x="1218.63" y="785.3234">callbackMap: std::map&lt;String, CallbackFunction&gt;</text><line style="stroke:#181818;stroke-width:0.5;" x1="1199.63" x2="1608.63" y1="792.2766" y2="792.2766"/><ellipse cx="1209.63" cy="806.0207" fill="#84BE84" rx="3" ry="3" style="stroke:#038048;stroke-width:1.0;"/><text fill="#000000" font-family="sans-serif" font-size="14" lengthAdjust="spacing" text-decoration="underline" textLength="311" x="1218.63" y="809.8117">getInstance(client: WiFiClient): MqttManager&amp;</text><ellipse cx="1209.63" cy="822.509" fill="#84BE84" rx="3" ry="3" style="stroke:#038048;stroke-width:1.0;"/><text fill="#000000" font-family="sans-serif" font-size="14" lengthAdjust="spacing" textLength="385" x="1218.63" y="826.3">subscribe(topic: String, callback: CallbackFunction): void</text><ellipse cx="1209.63" cy="838.9973" fill="#84BE84" rx="3" ry="3" style="stroke:#038048;stroke-width:1.0;"/><text fill="#000000" font-family="sans-serif" font-size="14" lengthAdjust="spacing" textLength="78" x="1218.63" y="842.7883">loop(): void</text><ellipse cx="1209.63" cy="855.4855" fill="#84BE84" rx="3" ry="3" style="stroke:#038048;stroke-width:1.0;"/><text fill="#000000" font-family="sans-serif" font-size="14" lengthAdjust="spacing" textLength="298" x="1218.63" y="859.2766">publish(topic: String, message: String): void</text></g><!--class Network--><g id="elem_Network"><rect codeLine="38" fill="#F1F1F1" height="130.4414" id="Network" rx="2.5" ry="2.5" style="stroke:#181818;stroke-width:0.5;" width="298" x="343.13" y="147.98"/><ellipse cx="459.38" cy="163.98" fill="#ADD1B2" rx="11" ry="11" style="stroke:#181818;stroke-width:1.0;"/><path d="M462.3531,169.6231 Q461.7721,169.9219 461.1329,170.0713 Q460.4938,170.2207 459.7882,170.2207 Q457.2814,170.2207 455.9615,168.5689 Q454.6417,166.917 454.6417,163.7959 Q454.6417,160.6665 455.9615,159.0147 Q457.2814,157.3628 459.7882,157.3628 Q460.4938,157.3628 461.1412,157.5122 Q461.7887,157.6616 462.3531,157.9605 L462.3531,160.6831 Q461.7223,160.1021 461.1288,159.8323 Q460.5353,159.5625 459.9044,159.5625 Q458.5597,159.5625 457.8749,160.6292 Q457.1901,161.6958 457.1901,163.7959 Q457.1901,165.8877 457.8749,166.9544 Q458.5597,168.021 459.9044,168.021 Q460.5353,168.021 461.1288,167.7512 Q461.7223,167.4815 462.3531,166.9004 Z " fill="#000000"/><text fill="#000000" font-family="sans-serif" font-size="14" lengthAdjust="spacing" textLength="57" x="479.88" y="169.271">Network</text><line style="stroke:#181818;stroke-width:0.5;" x1="344.13" x2="640.13" y1="179.98" y2="179.98"/><rect fill="none" height="6" style="stroke:#C82930;stroke-width:1.0;" width="6" x="351.13" y="190.7241"/><text fill="#000000" font-family="sans-serif" font-size="14" lengthAdjust="spacing" textLength="216" x="363.13" y="197.5152">connectionState: NetworkState*</text><line style="stroke:#181818;stroke-width:0.5;" x1="344.13" x2="640.13" y1="204.4683" y2="204.4683"/><ellipse cx="354.13" cy="218.2124" fill="#84BE84" rx="3" ry="3" style="stroke:#038048;stroke-width:1.0;"/><text fill="#000000" font-family="sans-serif" font-size="14" lengthAdjust="spacing" textLength="67" x="363.13" y="222.0034">Network()</text><ellipse cx="354.13" cy="234.7007" fill="#84BE84" rx="3" ry="3" style="stroke:#038048;stroke-width:1.0;"/><text fill="#000000" font-family="sans-serif" font-size="14" lengthAdjust="spacing" textLength="251" x="363.13" y="238.4917">getConnectionState(): NetworkState*</text><ellipse cx="354.13" cy="251.189" fill="#84BE84" rx="3" ry="3" style="stroke:#038048;stroke-width:1.0;"/><text fill="#000000" font-family="sans-serif" font-size="14" lengthAdjust="spacing" textLength="112" x="363.13" y="254.98">switching(): void</text><ellipse cx="354.13" cy="267.6773" fill="#84BE84" rx="3" ry="3" style="stroke:#038048;stroke-width:1.0;"/><text fill="#000000" font-family="sans-serif" font-size="14" lengthAdjust="spacing" textLength="272" x="363.13" y="271.4683">setState(newState: NetworkState&amp;): void</text></g><!--class NetworkState--><g id="elem_NetworkState"><rect codeLine="46" fill="#F1F1F1" height="97.4648" id="NetworkState" rx="2.5" ry="2.5" style="stroke:#181818;stroke-width:0.5;" width="266" x="209.13" y="545.35"/><ellipse cx="292.38" cy="561.35" fill="#A9DCDF" rx="11" ry="11" style="stroke:#181818;stroke-width:1.0;"/><path d="M292.4933,556.6981 L291.3395,561.7699 L293.6554,561.7699 Z M290.9991,554.4569 L293.9957,554.4569 L297.3409,566.85 L294.8922,566.85 L294.1285,563.787 L290.8497,563.787 L290.1027,566.85 L287.6539,566.85 Z " fill="#000000"/><text fill="#000000" font-family="sans-serif" font-size="14" font-style="italic" lengthAdjust="spacing" textLength="91" x="312.88" y="566.641">NetworkState</text><line style="stroke:#181818;stroke-width:0.5;" x1="210.13" x2="474.13" y1="577.35" y2="577.35"/><line style="stroke:#181818;stroke-width:0.5;" x1="210.13" x2="474.13" y1="585.35" y2="585.35"/><ellipse cx="220.13" cy="599.0941" fill="#84BE84" rx="3" ry="3" style="stroke:#038048;stroke-width:1.0;"/><text fill="#000000" font-family="sans-serif" font-size="14" font-style="italic" lengthAdjust="spacing" textLength="211" x="229.13" y="602.8852">enter(network: Network*): void</text><ellipse cx="220.13" cy="615.5824" fill="#84BE84" rx="3" ry="3" style="stroke:#038048;stroke-width:1.0;"/><text fill="#000000" font-family="sans-serif" font-size="14" font-style="italic" lengthAdjust="spacing" textLength="240" x="229.13" y="619.3734">switching(network: Network*): void</text><ellipse cx="220.13" cy="632.0707" fill="#84BE84" rx="3" ry="3" style="stroke:#038048;stroke-width:1.0;"/><text fill="#000000" font-family="sans-serif" font-size="14" font-style="italic" lengthAdjust="spacing" textLength="201" x="229.13" y="635.8617">exit(network: Network*): void</text></g><!--class Disconnected--><g id="elem_Disconnected"><rect codeLine="52" fill="#F1F1F1" height="130.4414" id="Disconnected" rx="2.5" ry="2.5" style="stroke:#181818;stroke-width:0.5;" width="266" x="58.13" y="338.42"/><ellipse cx="140.88" cy="354.42" fill="#ADD1B2" rx="11" ry="11" style="stroke:#181818;stroke-width:1.0;"/><path d="M143.8531,360.0631 Q143.2721,360.3619 142.6329,360.5113 Q141.9938,360.6607 141.2882,360.6607 Q138.7814,360.6607 137.4615,359.0089 Q136.1417,357.357 136.1417,354.2359 Q136.1417,351.1065 137.4615,349.4547 Q138.7814,347.8028 141.2882,347.8028 Q141.9938,347.8028 142.6412,347.9522 Q143.2887,348.1016 143.8531,348.4005 L143.8531,351.1231 Q143.2223,350.5421 142.6288,350.2723 Q142.0353,350.0025 141.4044,350.0025 Q140.0597,350.0025 139.3749,351.0692 Q138.6901,352.1358 138.6901,354.2359 Q138.6901,356.3277 139.3749,357.3944 Q140.0597,358.461 141.4044,358.461 Q142.0353,358.461 142.6288,358.1912 Q143.2223,357.9215 143.8531,357.3404 Z " fill="#000000"/><text fill="#000000" font-family="sans-serif" font-size="14" lengthAdjust="spacing" textLength="92" x="161.38" y="359.711">Disconnected</text><line style="stroke:#181818;stroke-width:0.5;" x1="59.13" x2="323.13" y1="370.42" y2="370.42"/><rect fill="none" height="6" style="stroke:#C82930;stroke-width:1.0;" width="6" x="66.13" y="381.1641"/><text fill="#000000" font-family="sans-serif" font-size="14" lengthAdjust="spacing" textLength="164" x="78.13" y="387.9552">instance: Disconnected*</text><line style="stroke:#181818;stroke-width:0.5;" x1="59.13" x2="323.13" y1="394.9083" y2="394.9083"/><ellipse cx="69.13" cy="408.6524" fill="#84BE84" rx="3" ry="3" style="stroke:#038048;stroke-width:1.0;"/><text fill="#000000" font-family="sans-serif" font-size="14" lengthAdjust="spacing" text-decoration="underline" textLength="196" x="78.13" y="412.4434">getInstance(): Disconnected*</text><ellipse cx="69.13" cy="425.1407" fill="#84BE84" rx="3" ry="3" style="stroke:#038048;stroke-width:1.0;"/><text fill="#000000" font-family="sans-serif" font-size="14" font-style="italic" lengthAdjust="spacing" textLength="211" x="78.13" y="428.9317">enter(network: Network*): void</text><ellipse cx="69.13" cy="441.629" fill="#84BE84" rx="3" ry="3" style="stroke:#038048;stroke-width:1.0;"/><text fill="#000000" font-family="sans-serif" font-size="14" font-style="italic" lengthAdjust="spacing" textLength="201" x="78.13" y="445.42">exit(network: Network*): void</text><ellipse cx="69.13" cy="458.1173" fill="#84BE84" rx="3" ry="3" style="stroke:#038048;stroke-width:1.0;"/><text fill="#000000" font-family="sans-serif" font-size="14" font-style="italic" lengthAdjust="spacing" textLength="240" x="78.13" y="461.9083">switching(network: Network*): void</text></g><!--class Connecting--><g id="elem_Connecting"><rect codeLine="60" fill="#F1F1F1" height="130.4414" id="Connecting" rx="2.5" ry="2.5" style="stroke:#181818;stroke-width:0.5;" width="266" x="359.13" y="338.42"/><ellipse cx="448.38" cy="354.42" fill="#ADD1B2" rx="11" ry="11" style="stroke:#181818;stroke-width:1.0;"/><path d="M451.3531,360.0631 Q450.7721,360.3619 450.1329,360.5113 Q449.4938,360.6607 448.7882,360.6607 Q446.2814,360.6607 444.9615,359.0089 Q443.6417,357.357 443.6417,354.2359 Q443.6417,351.1065 444.9615,349.4547 Q446.2814,347.8028 448.7882,347.8028 Q449.4938,347.8028 450.1412,347.9522 Q450.7887,348.1016 451.3531,348.4005 L451.3531,351.1231 Q450.7223,350.5421 450.1288,350.2723 Q449.5353,350.0025 448.9044,350.0025 Q447.5597,350.0025 446.8749,351.0692 Q446.1901,352.1358 446.1901,354.2359 Q446.1901,356.3277 446.8749,357.3944 Q447.5597,358.461 448.9044,358.461 Q449.5353,358.461 450.1288,358.1912 Q450.7223,357.9215 451.3531,357.3404 Z " fill="#000000"/><text fill="#000000" font-family="sans-serif" font-size="14" lengthAdjust="spacing" textLength="79" x="468.88" y="359.711">Connecting</text><line style="stroke:#181818;stroke-width:0.5;" x1="360.13" x2="624.13" y1="370.42" y2="370.42"/><rect fill="none" height="6" style="stroke:#C82930;stroke-width:1.0;" width="6" x="367.13" y="381.1641"/><text fill="#000000" font-family="sans-serif" font-size="14" lengthAdjust="spacing" textLength="151" x="379.13" y="387.9552">instance: Connecting*</text><line style="stroke:#181818;stroke-width:0.5;" x1="360.13" x2="624.13" y1="394.9083" y2="394.9083"/><ellipse cx="370.13" cy="408.6524" fill="#84BE84" rx="3" ry="3" style="stroke:#038048;stroke-width:1.0;"/><text fill="#000000" font-family="sans-serif" font-size="14" lengthAdjust="spacing" text-decoration="underline" textLength="183" x="379.13" y="412.4434">getInstance(): Connecting*</text><ellipse cx="370.13" cy="425.1407" fill="#84BE84" rx="3" ry="3" style="stroke:#038048;stroke-width:1.0;"/><text fill="#000000" font-family="sans-serif" font-size="14" font-style="italic" lengthAdjust="spacing" textLength="211" x="379.13" y="428.9317">enter(network: Network*): void</text><ellipse cx="370.13" cy="441.629" fill="#84BE84" rx="3" ry="3" style="stroke:#038048;stroke-width:1.0;"/><text fill="#000000" font-family="sans-serif" font-size="14" font-style="italic" lengthAdjust="spacing" textLength="201" x="379.13" y="445.42">exit(network: Network*): void</text><ellipse cx="370.13" cy="458.1173" fill="#84BE84" rx="3" ry="3" style="stroke:#038048;stroke-width:1.0;"/><text fill="#000000" font-family="sans-serif" font-size="14" font-style="italic" lengthAdjust="spacing" textLength="240" x="379.13" y="461.9083">switching(network: Network*): void</text></g><!--class Connected--><g id="elem_Connected"><rect codeLine="68" fill="#F1F1F1" height="130.4414" id="Connected" rx="2.5" ry="2.5" style="stroke:#181818;stroke-width:0.5;" width="266" x="660.13" y="338.42"/><ellipse cx="751.88" cy="354.42" fill="#ADD1B2" rx="11" ry="11" style="stroke:#181818;stroke-width:1.0;"/><path d="M754.8531,360.0631 Q754.2721,360.3619 753.6329,360.5113 Q752.9938,360.6607 752.2882,360.6607 Q749.7814,360.6607 748.4615,359.0089 Q747.1417,357.357 747.1417,354.2359 Q747.1417,351.1065 748.4615,349.4547 Q749.7814,347.8028 752.2882,347.8028 Q752.9938,347.8028 753.6412,347.9522 Q754.2887,348.1016 754.8531,348.4005 L754.8531,351.1231 Q754.2223,350.5421 753.6288,350.2723 Q753.0353,350.0025 752.4044,350.0025 Q751.0597,350.0025 750.3749,351.0692 Q749.6901,352.1358 749.6901,354.2359 Q749.6901,356.3277 750.3749,357.3944 Q751.0597,358.461 752.4044,358.461 Q753.0353,358.461 753.6288,358.1912 Q754.2223,357.9215 754.8531,357.3404 Z " fill="#000000"/><text fill="#000000" font-family="sans-serif" font-size="14" lengthAdjust="spacing" textLength="74" x="772.38" y="359.711">Connected</text><line style="stroke:#181818;stroke-width:0.5;" x1="661.13" x2="925.13" y1="370.42" y2="370.42"/><rect fill="none" height="6" style="stroke:#C82930;stroke-width:1.0;" width="6" x="668.13" y="381.1641"/><text fill="#000000" font-family="sans-serif" font-size="14" lengthAdjust="spacing" textLength="146" x="680.13" y="387.9552">instance: Connected*</text><line style="stroke:#181818;stroke-width:0.5;" x1="661.13" x2="925.13" y1="394.9083" y2="394.9083"/><ellipse cx="671.13" cy="408.6524" fill="#84BE84" rx="3" ry="3" style="stroke:#038048;stroke-width:1.0;"/><text fill="#000000" font-family="sans-serif" font-size="14" lengthAdjust="spacing" text-decoration="underline" textLength="178" x="680.13" y="412.4434">getInstance(): Connected*</text><ellipse cx="671.13" cy="425.1407" fill="#84BE84" rx="3" ry="3" style="stroke:#038048;stroke-width:1.0;"/><text fill="#000000" font-family="sans-serif" font-size="14" font-style="italic" lengthAdjust="spacing" textLength="211" x="680.13" y="428.9317">enter(network: Network*): void</text><ellipse cx="671.13" cy="441.629" fill="#84BE84" rx="3" ry="3" style="stroke:#038048;stroke-width:1.0;"/><text fill="#000000" font-family="sans-serif" font-size="14" font-style="italic" lengthAdjust="spacing" textLength="201" x="680.13" y="445.42">exit(network: Network*): void</text><ellipse cx="671.13" cy="458.1173" fill="#84BE84" rx="3" ry="3" style="stroke:#038048;stroke-width:1.0;"/><text fill="#000000" font-family="sans-serif" font-size="14" font-style="italic" lengthAdjust="spacing" textLength="240" x="680.13" y="461.9083">switching(network: Network*): void</text></g><!--class MyDHT--><g id="elem_MyDHT"><rect codeLine="76" fill="#F1F1F1" height="80.9766" id="MyDHT" rx="2.5" ry="2.5" style="stroke:#181818;stroke-width:0.5;" width="115" x="1704.63" y="7"/><ellipse cx="1735.38" cy="23" fill="#ADD1B2" rx="11" ry="11" style="stroke:#181818;stroke-width:1.0;"/><path d="M1738.3531,28.6431 Q1737.7721,28.9419 1737.1329,29.0913 Q1736.4938,29.2407 1735.7882,29.2407 Q1733.2814,29.2407 1731.9615,27.5889 Q1730.6417,25.937 1730.6417,22.8159 Q1730.6417,19.6865 1731.9615,18.0347 Q1733.2814,16.3828 1735.7882,16.3828 Q1736.4938,16.3828 1737.1412,16.5322 Q1737.7887,16.6816 1738.3531,16.9805 L1738.3531,19.7031 Q1737.7223,19.1221 1737.1288,18.8523 Q1736.5353,18.5825 1735.9044,18.5825 Q1734.5597,18.5825 1733.8749,19.6492 Q1733.1901,20.7158 1733.1901,22.8159 Q1733.1901,24.9077 1733.8749,25.9744 Q1734.5597,27.041 1735.9044,27.041 Q1736.5353,27.041 1737.1288,26.7712 Q1737.7223,26.5015 1738.3531,25.9204 Z " fill="#000000"/><text fill="#000000" font-family="sans-serif" font-size="14" lengthAdjust="spacing" textLength="48" x="1752.88" y="28.291">MyDHT</text><line style="stroke:#181818;stroke-width:0.5;" x1="1705.63" x2="1818.63" y1="39" y2="39"/><ellipse cx="1715.63" cy="52.7441" fill="none" rx="3" ry="3" style="stroke:#038048;stroke-width:1.0;"/><text fill="#000000" font-family="sans-serif" font-size="14" lengthAdjust="spacing" textLength="47" x="1724.63" y="56.5352">Pin: int</text><ellipse cx="1715.63" cy="69.2324" fill="none" rx="3" ry="3" style="stroke:#038048;stroke-width:1.0;"/><text fill="#000000" font-family="sans-serif" font-size="14" lengthAdjust="spacing" textLength="89" x="1724.63" y="73.0234">Type: uint8_t</text><line style="stroke:#181818;stroke-width:0.5;" x1="1705.63" x2="1818.63" y1="79.9766" y2="79.9766"/></g><!--class MyDallasTemperature--><g id="elem_MyDallasTemperature"><rect codeLine="81" fill="#F1F1F1" height="64.4883" id="MyDallasTemperature" rx="2.5" ry="2.5" style="stroke:#181818;stroke-width:0.5;" width="181" x="1854.63" y="15.24"/><ellipse cx="1869.63" cy="31.24" fill="#ADD1B2" rx="11" ry="11" style="stroke:#181818;stroke-width:1.0;"/><path d="M1872.6031,36.8831 Q1872.0221,37.1819 1871.3829,37.3313 Q1870.7438,37.4807 1870.0382,37.4807 Q1867.5314,37.4807 1866.2115,35.8289 Q1864.8917,34.177 1864.8917,31.0559 Q1864.8917,27.9265 1866.2115,26.2747 Q1867.5314,24.6228 1870.0382,24.6228 Q1870.7438,24.6228 1871.3912,24.7722 Q1872.0387,24.9216 1872.6031,25.2205 L1872.6031,27.9431 Q1871.9723,27.3621 1871.3788,27.0923 Q1870.7853,26.8225 1870.1544,26.8225 Q1868.8097,26.8225 1868.1249,27.8892 Q1867.4401,28.9558 1867.4401,31.0559 Q1867.4401,33.1477 1868.1249,34.2144 Q1868.8097,35.281 1870.1544,35.281 Q1870.7853,35.281 1871.3788,35.0112 Q1871.9723,34.7415 1872.6031,34.1604 Z " fill="#000000"/><text fill="#000000" font-family="sans-serif" font-size="14" lengthAdjust="spacing" textLength="149" x="1883.63" y="36.531">MyDallasTemperature</text><line style="stroke:#181818;stroke-width:0.5;" x1="1855.63" x2="2034.63" y1="47.24" y2="47.24"/><ellipse cx="1865.63" cy="60.9841" fill="none" rx="3" ry="3" style="stroke:#038048;stroke-width:1.0;"/><text fill="#000000" font-family="sans-serif" font-size="14" lengthAdjust="spacing" textLength="47" x="1874.63" y="64.7752">Pin: int</text><line style="stroke:#181818;stroke-width:0.5;" x1="1855.63" x2="2034.63" y1="71.7283" y2="71.7283"/></g><!--class WifiDetails--><g id="elem_WifiDetails"><rect codeLine="85" fill="#F1F1F1" height="80.9766" id="WifiDetails" rx="2.5" ry="2.5" style="stroke:#181818;stroke-width:0.5;" width="136" x="2071.13" y="7"/><ellipse cx="2100.98" cy="23" fill="#ADD1B2" rx="11" ry="11" style="stroke:#181818;stroke-width:1.0;"/><path d="M2103.9531,28.6431 Q2103.3721,28.9419 2102.7329,29.0913 Q2102.0938,29.2407 2101.3882,29.2407 Q2098.8814,29.2407 2097.5615,27.5889 Q2096.2417,25.937 2096.2417,22.8159 Q2096.2417,19.6865 2097.5615,18.0347 Q2098.8814,16.3828 2101.3882,16.3828 Q2102.0938,16.3828 2102.7412,16.5322 Q2103.3887,16.6816 2103.9531,16.9805 L2103.9531,19.7031 Q2103.3223,19.1221 2102.7288,18.8523 Q2102.1353,18.5825 2101.5044,18.5825 Q2100.1597,18.5825 2099.4749,19.6492 Q2098.7901,20.7158 2098.7901,22.8159 Q2098.7901,24.9077 2099.4749,25.9744 Q2100.1597,27.041 2101.5044,27.041 Q2102.1353,27.041 2102.7288,26.7712 Q2103.3223,26.5015 2103.9531,25.9204 Z " fill="#000000"/><text fill="#000000" font-family="sans-serif" font-size="14" lengthAdjust="spacing" textLength="71" x="2118.28" y="28.291">WifiDetails</text><line style="stroke:#181818;stroke-width:0.5;" x1="2072.13" x2="2206.13" y1="39" y2="39"/><ellipse cx="2082.13" cy="52.7441" fill="none" rx="3" ry="3" style="stroke:#038048;stroke-width:1.0;"/><text fill="#000000" font-family="sans-serif" font-size="14" lengthAdjust="spacing" textLength="75" x="2091.13" y="56.5352">SSID: char*</text><ellipse cx="2082.13" cy="69.2324" fill="none" rx="3" ry="3" style="stroke:#038048;stroke-width:1.0;"/><text fill="#000000" font-family="sans-serif" font-size="14" lengthAdjust="spacing" textLength="110" x="2091.13" y="73.0234">Password: char*</text><line style="stroke:#181818;stroke-width:0.5;" x1="2072.13" x2="2206.13" y1="79.9766" y2="79.9766"/></g><!--class MqttDetails--><g id="elem_MqttDetails"><rect codeLine="90" fill="#F1F1F1" height="80.9766" id="MqttDetails" rx="2.5" ry="2.5" style="stroke:#181818;stroke-width:0.5;" width="114" x="1705.13" y="172.71"/><ellipse cx="1722.38" cy="188.71" fill="#ADD1B2" rx="11" ry="11" style="stroke:#181818;stroke-width:1.0;"/><path d="M1725.3531,194.3531 Q1724.7721,194.6519 1724.1329,194.8013 Q1723.4938,194.9507 1722.7882,194.9507 Q1720.2814,194.9507 1718.9615,193.2989 Q1717.6417,191.647 1717.6417,188.5259 Q1717.6417,185.3965 1718.9615,183.7447 Q1720.2814,182.0928 1722.7882,182.0928 Q1723.4938,182.0928 1724.1412,182.2422 Q1724.7887,182.3916 1725.3531,182.6905 L1725.3531,185.4131 Q1724.7223,184.8321 1724.1288,184.5623 Q1723.5353,184.2925 1722.9044,184.2925 Q1721.5597,184.2925 1720.8749,185.3592 Q1720.1901,186.4258 1720.1901,188.5259 Q1720.1901,190.6177 1720.8749,191.6844 Q1721.5597,192.751 1722.9044,192.751 Q1723.5353,192.751 1724.1288,192.4812 Q1724.7223,192.2115 1725.3531,191.6304 Z " fill="#000000"/><text fill="#000000" font-family="sans-serif" font-size="14" lengthAdjust="spacing" textLength="77" x="1736.88" y="194.001">MqttDetails</text><line style="stroke:#181818;stroke-width:0.5;" x1="1706.13" x2="1818.13" y1="204.71" y2="204.71"/><ellipse cx="1716.13" cy="218.4541" fill="none" rx="3" ry="3" style="stroke:#038048;stroke-width:1.0;"/><text fill="#000000" font-family="sans-serif" font-size="14" lengthAdjust="spacing" textLength="88" x="1725.13" y="222.2452">Server: char*</text><ellipse cx="1716.13" cy="234.9424" fill="none" rx="3" ry="3" style="stroke:#038048;stroke-width:1.0;"/><text fill="#000000" font-family="sans-serif" font-size="14" lengthAdjust="spacing" textLength="54" x="1725.13" y="238.7334">Port: int</text><line style="stroke:#181818;stroke-width:0.5;" x1="1706.13" x2="1818.13" y1="245.6866" y2="245.6866"/></g><!--class Timing--><g id="elem_Timing"><rect codeLine="95" fill="#F1F1F1" height="64.4883" id="Timing" rx="2.5" ry="2.5" style="stroke:#181818;stroke-width:0.5;" width="140" x="1854.13" y="180.95"/><ellipse cx="1896.13" cy="196.95" fill="#ADD1B2" rx="11" ry="11" style="stroke:#181818;stroke-width:1.0;"/><path d="M1899.1031,202.5931 Q1898.5221,202.8919 1897.8829,203.0413 Q1897.2438,203.1907 1896.5382,203.1907 Q1894.0314,203.1907 1892.7115,201.5389 Q1891.3917,199.887 1891.3917,196.7659 Q1891.3917,193.6365 1892.7115,191.9847 Q1894.0314,190.3328 1896.5382,190.3328 Q1897.2438,190.3328 1897.8912,190.4822 Q1898.5387,190.6316 1899.1031,190.9305 L1899.1031,193.6531 Q1898.4723,193.0721 1897.8788,192.8023 Q1897.2853,192.5325 1896.6544,192.5325 Q1895.3097,192.5325 1894.6249,193.5992 Q1893.9401,194.6658 1893.9401,196.7659 Q1893.9401,198.8577 1894.6249,199.9244 Q1895.3097,200.991 1896.6544,200.991 Q1897.2853,200.991 1897.8788,200.7212 Q1898.4723,200.4515 1899.1031,199.8704 Z " fill="#000000"/><text fill="#000000" font-family="sans-serif" font-size="14" lengthAdjust="spacing" textLength="48" x="1916.13" y="202.241">Timing</text><line style="stroke:#181818;stroke-width:0.5;" x1="1855.13" x2="1993.13" y1="212.95" y2="212.95"/><ellipse cx="1865.13" cy="226.6941" fill="none" rx="3" ry="3" style="stroke:#038048;stroke-width:1.0;"/><text fill="#000000" font-family="sans-serif" font-size="14" lengthAdjust="spacing" textLength="114" x="1874.13" y="230.4852">measureWait: int</text><line style="stroke:#181818;stroke-width:0.5;" x1="1855.13" x2="1993.13" y1="237.4383" y2="237.4383"/></g><!--link Main to SensorFactory--><g id="link_Main_SensorFactory"><path codeLine="100" d="M1227.13,71.94 C1227.13,96.58 1227.13,135.94 1227.13,166.71 " fill="none" id="Main-to-SensorFactory" style="stroke:#181818;stroke-width:1.0;"/><polygon fill="#181818" points="1227.13,171.35,1231.13,162.35,1227.13,166.35,1223.13,162.35,1227.13,171.35" style="stroke:#181818;stroke-width:1.0;"/></g><!--link Main to MqttManager--><g id="link_Main_MqttManager"><path codeLine="101" d="M1259.82,48.66 C1323.87,50.89 1466.07,65.43 1540.13,147.98 C1693.61,319.04 1728.77,458.42 1617.13,659.3 C1605.09,680.98 1587.86,699.56 1568.36,715.36 " fill="none" id="Main-to-MqttManager" style="stroke:#181818;stroke-width:1.0;"/><polygon fill="#181818" points="1564.9,718.9,1574.4388,716.4481,1568.8196,715.7958,1569.472,710.1766,1564.9,718.9" style="stroke:#181818;stroke-width:1.0;"/></g><!--link Main to Network--><g id="link_Main_Network"><path codeLine="102" d="M1194.6,55.73 C1100.61,76.67 824.11,138.26 647.34,177.63 " fill="none" id="Main-to-Network" style="stroke:#181818;stroke-width:1.0;"/><polygon fill="#181818" points="642.61,178.9,652.2646,180.8464,647.4903,177.8123,650.5243,173.038,642.61,178.9" style="stroke:#181818;stroke-width:1.0;"/></g><!--reverse link Sensor to DHTSensor--><g id="link_Sensor_DHTSensor"><path codeLine="105" d="M1158.13,457.07 C1125.52,481.85 1086.54,511.47 1053.29,536.73 " fill="none" id="Sensor-backto-DHTSensor" style="stroke:#181818;stroke-width:1.0;stroke-dasharray:7.0,7.0;"/><polygon fill="none" points="1153.38,451.13,1173.54,444.6,1161.85,462.28,1153.38,451.13" style="stroke:#181818;stroke-width:1.0;"/></g><!--reverse link Sensor to DallasTemperatureSensor--><g id="link_Sensor_DallasTemperatureSensor"><path codeLine="106" d="M1278.82,459.67 C1299.13,481.29 1322.58,506.26 1343.67,528.71 " fill="none" id="Sensor-backto-DallasTemperatureSensor" style="stroke:#181818;stroke-width:1.0;stroke-dasharray:7.0,7.0;"/><polygon fill="none" points="1274.26,464.97,1265.67,445.6,1284.47,455.39,1274.26,464.97" style="stroke:#181818;stroke-width:1.0;"/></g><!--link SensorFactory to Sensor--><g id="link_SensorFactory_Sensor"><path codeLine="107" d="M1227.13,254.16 C1227.13,284.27 1227.13,325.58 1227.13,356.99 " fill="none" id="SensorFactory-to-Sensor" style="stroke:#181818;stroke-width:1.0;"/><polygon fill="#181818" points="1227.13,361.73,1231.13,352.73,1227.13,356.73,1223.13,352.73,1227.13,361.73" style="stroke:#181818;stroke-width:1.0;"/></g><!--link DHTSensor to SensorFactory--><g id="link_DHTSensor_SensorFactory"><path codeLine="108" d="M973.42,536.76 C970.72,481.61 974.61,397.48 1014.13,338.42 C1037.94,302.84 1075.66,276.1 1112.78,256.72 " fill="none" id="DHTSensor-to-SensorFactory" style="stroke:#181818;stroke-width:1.0;"/><polygon fill="#181818" points="1116.77,254.16,1106.9364,254.7076,1112.3209,256.4416,1110.5869,261.8261,1116.77,254.16" style="stroke:#181818;stroke-width:1.0;"/></g><!--link DallasTemperatureSensor to SensorFactory--><g id="link_DallasTemperatureSensor_SensorFactory"><path codeLine="109" d="M1434.6,528.4 C1455.34,474.2 1473.55,396.59 1440.13,338.42 C1419.42,302.36 1383.76,275.78 1347.48,256.68 " fill="none" id="DallasTemperatureSensor-to-SensorFactory" style="stroke:#181818;stroke-width:1.0;"/><polygon fill="#181818" points="1343.59,254.15,1349.7436,261.8398,1348.0303,256.4487,1353.4214,254.7354,1343.59,254.15" style="stroke:#181818;stroke-width:1.0;"/></g><!--link DHTSensor to MqttManager--><g id="link_DHTSensor_MqttManager"><path codeLine="110" d="M1100.92,651.44 C1144.62,671.66 1194.61,694.8 1241.23,716.37 " fill="none" id="DHTSensor-to-MqttManager" style="stroke:#181818;stroke-width:1.0;"/><polygon fill="#181818" points="1245.6,718.86,1239.109,711.4528,1241.0615,716.762,1235.7522,718.7144,1245.6,718.86" style="stroke:#181818;stroke-width:1.0;"/></g><!--link DallasTemperatureSensor to MqttManager--><g id="link_DallasTemperatureSensor_MqttManager"><path codeLine="111" d="M1404.13,659.75 C1404.13,676.75 1404.13,695.28 1404.13,712.93 " fill="none" id="DallasTemperatureSensor-to-MqttManager" style="stroke:#181818;stroke-width:1.0;"/><polygon fill="#181818" points="1404.13,717.88,1408.13,708.88,1404.13,712.88,1400.13,708.88,1404.13,717.88" style="stroke:#181818;stroke-width:1.0;"/></g><!--reverse link Network to NetworkState--><g id="link_Network_NetworkState"><path codeLine="114" d="M322.45,239.2 C209.58,259.7 75.89,292.79 41.13,338.42 C6,384.53 8.89,420.68 41.13,468.86 C78.7,525.01 146.79,555.8 208.71,572.68 " fill="none" id="Network-backto-NetworkState" style="stroke:#181818;stroke-width:1.0;stroke-dasharray:7.0,7.0;"/><polygon fill="none" points="320.98,232.17,341.89,235.58,323.42,245.96,320.98,232.17" style="stroke:#181818;stroke-width:1.0;"/></g><!--reverse link Disconnected to NetworkState--><g id="link_Disconnected_NetworkState"><path codeLine="115" d="M255.99,485.57 C272.2,505.81 289.08,526.87 303.56,544.94 " fill="none" id="Disconnected-backto-NetworkState" style="stroke:#181818;stroke-width:1.0;stroke-dasharray:7.0,7.0;"/><polygon fill="none" points="249.93,490.21,242.89,470.23,260.86,481.46,249.93,490.21" style="stroke:#181818;stroke-width:1.0;"/></g><!--reverse link Connecting to NetworkState--><g id="link_Connecting_NetworkState"><path codeLine="116" d="M427.71,485.57 C411.61,505.81 394.83,526.87 380.45,544.94 " fill="none" id="Connecting-backto-NetworkState" style="stroke:#181818;stroke-width:1.0;stroke-dasharray:7.0,7.0;"/><polygon fill="none" points="422.79,481.51,440.72,470.23,433.74,490.23,422.79,481.51" style="stroke:#181818;stroke-width:1.0;"/></g><!--reverse link Connected to NetworkState--><g id="link_Connected_NetworkState"><path codeLine="117" d="M640.81,469.39 C570.88,498.7 510.03,523.92 459.07,544.96 " fill="none" id="Connected-backto-NetworkState" style="stroke:#181818;stroke-width:1.0;stroke-dasharray:7.0,7.0;"/><polygon fill="none" points="637.62,462.72,658.77,461.44,643.04,475.63,637.62,462.72" style="stroke:#181818;stroke-width:1.0;"/></g><!--reverse link Network to Disconnected--><g id="link_Network_Disconnected"><path codeLine="118" d="M383.93,281.94 C354.77,300.19 323.31,319.89 294.42,337.98 " fill="none" id="Network-backto-Disconnected" style="stroke:#181818;stroke-width:1.0;"/><polygon fill="#181818" points="387.97,278.78,378.2193,280.1668,383.7324,281.4338,382.4654,286.947,387.97,278.78" style="stroke:#181818;stroke-width:1.0;"/></g><!--reverse link Network to Connecting--><g id="link_Network_Connecting"><path codeLine="119" d="M492.13,284.68 C492.13,302.21 492.13,320.91 492.13,338.14 " fill="none" id="Network-backto-Connecting" style="stroke:#181818;stroke-width:1.0;"/><polygon fill="#181818" points="492.13,279.78,488.13,288.78,492.13,284.78,496.13,288.78,492.13,279.78" style="stroke:#181818;stroke-width:1.0;"/></g><!--reverse link Network to Connected--><g id="link_Network_Connected"><path codeLine="120" d="M600.34,281.94 C629.5,300.19 660.96,319.89 689.85,337.98 " fill="none" id="Network-backto-Connected" style="stroke:#181818;stroke-width:1.0;"/><polygon fill="#181818" points="596.3,278.78,601.8046,286.947,600.5376,281.4338,606.0507,280.1668,596.3,278.78" style="stroke:#181818;stroke-width:1.0;"/></g><!--SRC=[rLRFJzim5Bxdh_29fOMYRISK8Iwjq3XqGsgr7YV7CUqJgPFP3Wmn_lUz9hPZDsw7EA2D2ts_llU-P-Sziv8gHUOKH9BGN6b9cIQiLIwuK9Kapmd1lrFoRCqlH79QVATbmzDHHkxAYkgupssJbw0sdUlsfzPpAkYQoupCUs6C60yL5CbBalY9hn6caaykFqD4pJjRgjf_owUQPqJf8iimBOWrGdKEOnC40dIdKMcnCJypClko79-HWfQORyctDPTKDv8xyxvXM2CY1FsP48HlWKrcvv3M83BIWD0NF_GPqMtDHXozUszdSSwEHINu2YHM-AtxOScfJnVvvu-HrbYwSTo0_FkpzOoEuIvwMW8NU5m8ksZoJZ9cXaHookxdj3PNQqlhoqLxlSx8r5Yl6y4qLEBAbgiqrS1Uo9hh6u62O3nb9iiAhg7BCGhgFJ71giaLav3pL5SrCBp39fkj9HlajKmxWBAgwZHKrLt3zX6tN2bCRHM3Xdtb-h6IzwvPh1A2jnaNI13ZZ4ChsO_Cw59xljY3QHYtAouMgHv1imqMibUzuhgB4_mnalZ4gtjlQFbkiT65Xy0bmhPU3dKSflVy-mfV7yD_WJxitd-Ae4nxUU4Q3kRoP85vVEoQZGxulftqSG9lwP4ZRI-6M4SezyQ_4Ovu_ijqemSyVUtfJl-Fevq_uSvptzpjRl23iFDywQ-z86P_SGmHdFSAxc36DOLIEQ_5ucQM4RQXRkVVeYjMM5Xji0q6uLm-xDP80519lPTv2Tl-ofxY6AKAIrrHw1q_jAyet5ObZfuYQON9v2fypVHgRm_qIjFR7PZPonREY9U_py_xfqMeZM_W97nDzHKb_HDcMEQXPqB4Cq3nMHt3yFsGh5qxbgsLMsB-I4-2eJaqU-Fbe34Q6E1Ecjex30ypQXW497y0]--></g></svg>