<?xml version="1.0" encoding="us-ascii" standalone="no"?><svg xmlns="http://www.w3.org/2000/svg" xmlns:xlink="http://www.w3.org/1999/xlink" contentStyleType="text/css" height="801px" preserveAspectRatio="none" style="width:1033px;height:801px;background:#FFFFFF;" version="1.1" viewBox="0 0 1033 801" width="1033px" zoomAndPan="magnify"><defs/><g><!--cluster System Terrariensteuerung--><g id="cluster_System Terrariensteuerung"><rect fill="none" height="666.09" rx="2.5" ry="2.5" style="stroke:#181818;stroke-width:1.0;" width="1020" x="7" y="128.98"/><text fill="#000000" font-family="sans-serif" font-size="14" font-weight="bold" lengthAdjust="spacing" textLength="195" x="419.5" y="144.5152">System Terrariensteuerung</text></g><g id="elem_UC1"><ellipse cx="599.9951" cy="752.7434" fill="#F1F1F1" rx="97.8151" ry="26.3334" style="stroke:#181818;stroke-width:0.5;"/><text fill="#000000" font-family="sans-serif" font-size="14" lengthAdjust="spacing" textLength="122" x="536.5548" y="748.3909">Konfiguration der</text><text fill="#000000" font-family="sans-serif" font-size="14" lengthAdjust="spacing" textLength="117" x="539.0548" y="764.8791">WiFi-Verbindung</text></g><g id="elem_UC2"><ellipse cx="599.9997" cy="483.0299" fill="#F1F1F1" rx="123.9497" ry="27.1899" style="stroke:#181818;stroke-width:0.5;"/><text fill="#000000" font-family="sans-serif" font-size="14" lengthAdjust="spacing" textLength="117" x="541.4997" y="478.0768">&#220;berpr&#252;fung des</text><text fill="#000000" font-family="sans-serif" font-size="14" lengthAdjust="spacing" textLength="165" x="517.4997" y="494.5651">WiFi-Verbindungsstatus</text></g><g id="elem_UC3"><ellipse cx="600.0037" cy="621.6967" fill="#F1F1F1" rx="126.5337" ry="27.7067" style="stroke:#181818;stroke-width:0.5;"/><text fill="#000000" font-family="sans-serif" font-size="14" lengthAdjust="spacing" textLength="115" x="542.5037" y="616.7436">Verbindung zum</text><text fill="#000000" font-family="sans-serif" font-size="14" lengthAdjust="spacing" textLength="172" x="514.0037" y="633.2319">WiFi-Netzwerk herstellen</text></g><g id="elem_UC5"><ellipse cx="405.9961" cy="337.1832" fill="#F1F1F1" rx="124.3161" ry="27.2632" style="stroke:#181818;stroke-width:0.5;"/><text fill="#000000" font-family="sans-serif" font-size="14" lengthAdjust="spacing" textLength="115" x="348.4961" y="332.2301">Verbindung zum</text><text fill="#000000" font-family="sans-serif" font-size="14" lengthAdjust="spacing" textLength="166" x="322.9961" y="348.7184">MQTT-Broker herstellen</text></g><g id="elem_UC6"><ellipse cx="283.0024" cy="483.0265" fill="#F1F1F1" rx="157.7824" ry="33.9565" style="stroke:#181818;stroke-width:0.5;"/><text fill="#000000" font-family="sans-serif" font-size="14" lengthAdjust="spacing" textLength="250" x="158.0024" y="478.0734">&#220;berpr&#252;fung des Verbindungsstatus</text><text fill="#000000" font-family="sans-serif" font-size="14" lengthAdjust="spacing" textLength="128" x="219.0024" y="494.5616">zum MQTT-Broker</text></g><g id="elem_UC7"><ellipse cx="849.0042" cy="337.1828" fill="#F1F1F1" rx="162.4642" ry="34.8928" style="stroke:#181818;stroke-width:0.5;"/><text fill="#000000" font-family="sans-serif" font-size="14" lengthAdjust="spacing" textLength="157" x="770.5042" y="332.2297">Sensordaten lesen und</text><text fill="#000000" font-family="sans-serif" font-size="14" lengthAdjust="spacing" textLength="261" x="718.5042" y="348.718">als MQTT-Nachrichten ver&#246;ffentlichen</text></g><g id="elem_UC8"><ellipse cx="522.9964" cy="194.6433" fill="#F1F1F1" rx="141.2664" ry="30.6533" style="stroke:#181818;stroke-width:0.5;"/><text fill="#000000" font-family="sans-serif" font-size="14" lengthAdjust="spacing" textLength="210" x="417.9964" y="189.6901">Hauptanwendung initialisieren</text><text fill="#000000" font-family="sans-serif" font-size="14" lengthAdjust="spacing" textLength="97" x="474.4964" y="206.1784">und verwalten</text></g><g id="elem_UC9"><ellipse cx="134.9978" cy="337.1776" fill="#F1F1F1" rx="112.0878" ry="24.8176" style="stroke:#181818;stroke-width:0.5;"/><text fill="#000000" font-family="sans-serif" font-size="14" lengthAdjust="spacing" textLength="190" x="39.9978" y="340.4686">Lichtsteuerung automatisch</text></g><g id="elem_UC10"><ellipse cx="218.9996" cy="194.6439" fill="#F1F1F1" rx="98.8196" ry="22.1639" style="stroke:#181818;stroke-width:0.5;"/><text fill="#000000" font-family="sans-serif" font-size="14" lengthAdjust="spacing" textLength="161" x="138.4996" y="197.9349">Lichtsteuerung manuell</text></g><!--entity User--><g id="elem_User"><ellipse cx="523" cy="14" fill="#F1F1F1" rx="8" ry="8" style="stroke:#181818;stroke-width:0.5;"/><path d="M523,22 L523,49 M510,30 L536,30 M523,49 L510,64 M523,49 L536,64 " fill="none" style="stroke:#181818;stroke-width:0.5;"/><text fill="#000000" font-family="sans-serif" font-size="14" lengthAdjust="spacing" textLength="31" x="507.5" y="79.0352">User</text></g><!--link User to UC8--><g id="link_User_UC8"><path d="M523,82.31 C523,107.47 523,140.14 523,163.57 " fill="none" id="User-UC8" style="stroke:#181818;stroke-width:1.0;"/></g><!--link User to UC10--><g id="link_User_UC10"><path d="M507.16,52.22 C478.51,65.78 416.23,95.38 364,120.98 C327.97,138.65 287.13,159.16 257.99,173.87 " fill="none" id="User-UC10" style="stroke:#181818;stroke-width:1.0;"/></g><!--reverse link User to UC7--><g id="link_User_UC7"><path d="M544.47,51.45 C576.78,62.3 638.71,86.05 682,120.98 C747.14,173.55 802.04,256.3 829.71,302.37 " fill="none" id="User-backto-UC7" style="stroke:#181818;stroke-width:1.0;"/><polygon fill="#181818" points="539.79,49.58,547.0812,56.2011,544.5377,51.1483,549.5905,48.6048,539.79,49.58" style="stroke:#181818;stroke-width:1.0;"/></g><!--link UC8 to UC2--><g id="link_UC8_UC2"><path d="M531.02,225.48 C545.62,279.77 576.4,394.26 591.41,450.08 " fill="none" id="UC8-to-UC2" style="stroke:#181818;stroke-width:1.0;stroke-dasharray:7.0,7.0;"/><polygon fill="#181818" points="592.9,454.62,594.4227,444.8896,591.6001,449.7919,586.6978,446.9694,592.9,454.62" style="stroke:#181818;stroke-width:1.0;"/><text fill="#000000" font-family="sans-serif" font-size="13" lengthAdjust="spacing" textLength="50" x="571" y="342.2484">extends</text></g><!--link UC2 to UC3--><g id="link_UC2_UC3"><path d="M600,510.71 C600,532.76 600,564.18 600,587.8 " fill="none" id="UC2-to-UC3" style="stroke:#181818;stroke-width:1.0;stroke-dasharray:7.0,7.0;"/><polygon fill="#181818" points="600,592.62,604,583.62,600,587.62,596,583.62,600,592.62" style="stroke:#181818;stroke-width:1.0;"/><text fill="#000000" font-family="sans-serif" font-size="13" lengthAdjust="spacing" textLength="50" x="601" y="560.5584">extends</text></g><!--link UC3 to UC1--><g id="link_UC3_UC1"><path d="M600,649.75 C600,670.28 600,698.57 600,720.14 " fill="none" id="UC3-to-UC1" style="stroke:#181818;stroke-width:1.0;stroke-dasharray:7.0,7.0;"/><polygon fill="#181818" points="600,725.04,604,716.04,600,720.04,596,716.04,600,725.04" style="stroke:#181818;stroke-width:1.0;"/><text fill="#000000" font-family="sans-serif" font-size="13" lengthAdjust="spacing" textLength="50" x="601" y="692.9684">extends</text></g><!--link UC8 to UC5--><g id="link_UC8_UC5"><path d="M498.47,225.1 C478.79,248.74 451.26,281.82 431.36,305.72 " fill="none" id="UC8-to-UC5" style="stroke:#181818;stroke-width:1.0;stroke-dasharray:7.0,7.0;"/><polygon fill="#181818" points="427.74,309.07,436.573,304.7135,430.9395,305.2277,430.4253,299.5943,427.74,309.07" style="stroke:#181818;stroke-width:1.0;"/><text fill="#000000" font-family="sans-serif" font-size="13" lengthAdjust="spacing" textLength="50" x="472" y="268.8584">extends</text></g><!--link UC5 to UC2--><g id="link_UC5_UC2"><path d="M440.24,363.57 C474.07,388.66 525.76,426.98 561.12,453.2 " fill="none" id="UC5-to-UC2" style="stroke:#181818;stroke-width:1.0;stroke-dasharray:7.0,7.0;"/><polygon fill="#181818" points="564.78,456.66,559.9457,448.0793,560.768,453.676,555.1713,454.4984,564.78,456.66" style="stroke:#181818;stroke-width:1.0;"/><text fill="#000000" font-family="sans-serif" font-size="13" lengthAdjust="spacing" textLength="53" x="515" y="415.6484">includes</text></g><!--link UC8 to UC7--><g id="link_UC8_UC7"><path d="M582.17,222.93 C614.75,237.8 655.97,256.37 693,272.29 C717.25,282.72 743.77,293.73 767.95,303.62 " fill="none" id="UC8-to-UC7" style="stroke:#181818;stroke-width:1.0;stroke-dasharray:7.0,7.0;"/><polygon fill="#181818" points="772.4,305.84,765.5744,298.74,767.7695,303.9535,762.556,306.1487,772.4,305.84" style="stroke:#181818;stroke-width:1.0;"/><text fill="#000000" font-family="sans-serif" font-size="13" lengthAdjust="spacing" textLength="53" x="694" y="268.8584">includes</text></g><!--link UC10 to UC9--><g id="link_UC10_UC9"><path d="M206.24,216.98 C191.81,241.13 168.24,280.57 152.19,307.42 " fill="none" id="UC10-to-UC9" style="stroke:#181818;stroke-width:1.0;stroke-dasharray:7.0,7.0;"/><polygon fill="#181818" points="149.29,311.28,157.3504,305.6205,151.8625,306.9925,150.4905,301.5046,149.29,311.28" style="stroke:#181818;stroke-width:1.0;"/><text fill="#000000" font-family="sans-serif" font-size="13" lengthAdjust="spacing" textLength="50" x="183" y="268.8584">extends</text></g><!--link UC5 to UC6--><g id="link_UC5_UC6"><path d="M383.73,364.23 C364.42,386.81 336.26,419.74 314.62,445.05 " fill="none" id="UC5-to-UC6" style="stroke:#181818;stroke-width:1.0;stroke-dasharray:7.0,7.0;"/><polygon fill="#181818" points="310.94,448.36,319.8341,444.1299,314.194,444.5637,313.7601,438.9235,310.94,448.36" style="stroke:#181818;stroke-width:1.0;"/><text fill="#000000" font-family="sans-serif" font-size="13" lengthAdjust="spacing" textLength="50" x="349" y="415.6484">extends</text></g><!--link UC8 to UC9--><g id="link_UC8_UC9"><path d="M451.83,221.42 C379.02,247.79 266.99,288.37 197.49,313.55 " fill="none" id="UC8-to-UC9" style="stroke:#181818;stroke-width:1.0;stroke-dasharray:7.0,7.0;"/><polygon fill="#181818" points="193.15,315.48,202.9758,316.1539,197.8473,313.7667,200.2345,308.6382,193.15,315.48" style="stroke:#181818;stroke-width:1.0;"/><text fill="#000000" font-family="sans-serif" font-size="13" lengthAdjust="spacing" textLength="53" x="353" y="268.8584">includes</text></g><!--SRC=[VPB1Ji9048RlVOe9TmX80376WoR6H2KnW5vwMTeftR1CoUokACOtyJayUUF5dBQefH1xQ3h_pl_jlpjLaSiOfXOv21WZfsXk41hZL-jm2HDaLgoHfFB8dkODU0j07cynKXPXUjK1PQ5ncr6YvvwLqnb1Z1pIaxxMpKVacQOuTzPy9uLl-p53Nl7sAv4MyTa3dxLEEM_hzcvX_sk3ZL_kl2DqcpNo0b9a2MuCKjtTE-g-VvXCcfUSBP3_yVQF1uU3o2495IhGEcbGaCPolHd7oY61GIjlJt58ojZIEr9HoZfAy_LdvErdaY0v8yfXjjE2UAFyIYQvnl9ichJJocYhaP524dmEMYlZ3Wd3Wd2Nx_SxT53UPKiPhOtIUd-dVSomLEJbyXh1Un3aFnSqctcwodUdNHRdHJMGDWdVQbqKVyOPu8jaYssGLwNQtLExExLJKIk8tbvphmBM51aluweq3wfoK1ofN1Zkmtym_UDx3YkORm00]--></g></svg>